<svg xmlns="http://www.w3.org/2000/svg" xmlns:xlink="http://www.w3.org/1999/xlink" width="500" zoomAndPan="magnify" viewBox="0 0 375 374.999991" height="500" preserveAspectRatio="xMidYMid meet" version="1.0"><defs><clipPath id="9544b83481"><path d="M 18 16.195312 L 358 16.195312 L 358 358.945312 L 18 358.945312 Z M 18 16.195312 " clip-rule="nonzero"/></clipPath><clipPath id="e0abc47b38"><path d="M 142 37.5 L 173 37.5 L 173 68 L 142 68 Z M 142 37.5 " clip-rule="nonzero"/></clipPath><clipPath id="3be5e35a42"><path d="M 190 37.5 L 221 37.5 L 221 68 L 190 68 Z M 190 37.5 " clip-rule="nonzero"/></clipPath><clipPath id="7993ffa0af"><path d="M 154 130 L 209 130 L 209 175.5 L 154 175.5 Z M 154 130 " clip-rule="nonzero"/></clipPath><clipPath id="3cd5d21f35"><path d="M 106.75 112 L 160 112 L 160 158 L 106.75 158 Z M 106.75 112 " clip-rule="nonzero"/></clipPath><clipPath id="a665d9c3c2"><path d="M 203 112 L 256.75 112 L 256.75 158 L 203 158 Z M 203 112 " clip-rule="nonzero"/></clipPath></defs><g clip-path="url(#9544b83481)"><path fill="#ffffff" d="M 94.285156 110.054688 C 94.285156 108.519531 94.324219 106.988281 94.402344 105.457031 C 94.476562 103.925781 94.59375 102.398438 94.742188 100.871094 C 94.894531 99.347656 95.085938 97.828125 95.308594 96.308594 C 95.535156 94.792969 95.800781 93.285156 96.101562 91.78125 C 96.398438 90.277344 96.738281 88.78125 97.109375 87.296875 C 97.484375 85.808594 97.894531 84.332031 98.339844 82.863281 C 98.785156 81.398438 99.265625 79.941406 99.785156 78.5 C 100.300781 77.054688 100.855469 75.625 101.441406 74.210938 C 102.027344 72.792969 102.652344 71.394531 103.304688 70.007812 C 103.960938 68.621094 104.652344 67.253906 105.375 65.902344 C 106.097656 64.550781 106.855469 63.21875 107.644531 61.902344 C 108.429688 60.585938 109.25 59.292969 110.105469 58.019531 C 110.957031 56.742188 111.839844 55.492188 112.75 54.261719 C 113.664062 53.027344 114.609375 51.820312 115.582031 50.636719 C 116.554688 49.449219 117.554688 48.289062 118.582031 47.152344 C 119.613281 46.019531 120.671875 44.90625 121.753906 43.824219 C 122.839844 42.738281 123.949219 41.683594 125.082031 40.652344 C 126.21875 39.625 127.378906 38.621094 128.566406 37.648438 C 129.75 36.675781 130.957031 35.734375 132.1875 34.820312 C 133.417969 33.90625 134.671875 33.023438 135.945312 32.171875 C 137.222656 31.320312 138.515625 30.5 139.832031 29.710938 C 141.144531 28.921875 142.476562 28.164062 143.828125 27.441406 C 145.183594 26.71875 146.550781 26.027344 147.9375 25.371094 C 149.320312 24.714844 150.722656 24.09375 152.136719 23.507812 C 153.554688 22.917969 154.984375 22.367188 156.425781 21.847656 C 157.871094 21.332031 159.324219 20.851562 160.792969 20.402344 C 162.257812 19.957031 163.734375 19.546875 165.222656 19.175781 C 166.707031 18.800781 168.203125 18.464844 169.707031 18.164062 C 171.210938 17.863281 172.71875 17.597656 174.234375 17.371094 C 175.753906 17.144531 177.273438 16.957031 178.800781 16.804688 C 180.324219 16.652344 181.851562 16.539062 183.382812 16.460938 C 184.914062 16.386719 186.445312 16.34375 187.980469 16.34375 C 311.824219 20.722656 312.066406 198.992188 188.296875 203.75 C 186.761719 203.753906 185.226562 203.71875 183.691406 203.648438 C 182.15625 203.574219 180.625 203.464844 179.09375 203.316406 C 177.566406 203.171875 176.042969 202.988281 174.519531 202.765625 C 173 202.542969 171.488281 202.285156 169.980469 201.988281 C 168.472656 201.691406 166.972656 201.359375 165.480469 200.988281 C 163.992188 200.617188 162.511719 200.210938 161.039062 199.769531 C 159.566406 199.324219 158.109375 198.847656 156.660156 198.332031 C 155.214844 197.816406 153.78125 197.269531 152.359375 196.683594 C 150.9375 196.097656 149.53125 195.476562 148.144531 194.824219 C 146.753906 194.171875 145.378906 193.480469 144.023438 192.761719 C 142.667969 192.039062 141.328125 191.285156 140.011719 190.496094 C 138.691406 189.710938 137.390625 188.890625 136.113281 188.039062 C 134.832031 187.1875 133.578125 186.308594 132.339844 185.394531 C 131.105469 184.480469 129.894531 183.539062 128.703125 182.566406 C 127.515625 181.59375 126.347656 180.59375 125.210938 179.5625 C 124.070312 178.53125 122.957031 177.476562 121.867188 176.390625 C 120.777344 175.308594 119.71875 174.195312 118.683594 173.058594 C 117.652344 171.921875 116.644531 170.761719 115.667969 169.574219 C 114.691406 168.390625 113.746094 167.179688 112.828125 165.949219 C 111.910156 164.714844 111.023438 163.460938 110.167969 162.183594 C 109.3125 160.910156 108.492188 159.613281 107.699219 158.296875 C 106.90625 156.980469 106.148438 155.644531 105.421875 154.289062 C 104.695312 152.9375 104.003906 151.566406 103.34375 150.179688 C 102.6875 148.789062 102.0625 147.386719 101.472656 145.96875 C 100.882812 144.550781 100.328125 143.117188 99.808594 141.671875 C 99.289062 140.226562 98.804688 138.769531 98.355469 137.300781 C 97.910156 135.828125 97.496094 134.351562 97.121094 132.859375 C 96.746094 131.371094 96.410156 129.871094 96.109375 128.367188 C 95.804688 126.859375 95.542969 125.347656 95.316406 123.828125 C 95.085938 122.308594 94.898438 120.785156 94.746094 119.253906 C 94.59375 117.726562 94.480469 116.195312 94.402344 114.660156 C 94.324219 113.125 94.285156 111.589844 94.285156 110.054688 Z M 282.816406 203.792969 C 281.566406 203.027344 280.238281 202.453125 278.824219 202.074219 C 277.410156 201.695312 275.972656 201.523438 274.507812 201.558594 C 273.046875 201.59375 271.617188 201.835938 270.222656 202.285156 C 268.832031 202.734375 267.53125 203.375 266.320312 204.199219 C 264.925781 205.332031 263.507812 206.433594 262.066406 207.507812 C 260.625 208.578125 259.160156 209.617188 257.671875 210.625 C 256.183594 211.632812 254.675781 212.609375 253.148438 213.554688 C 251.617188 214.496094 250.070312 215.40625 248.5 216.285156 C 246.933594 217.160156 245.347656 218.003906 243.742188 218.8125 C 242.136719 219.621094 240.515625 220.394531 238.878906 221.132812 C 237.242188 221.871094 235.589844 222.574219 233.917969 223.242188 C 232.25 223.910156 230.570312 224.539062 228.875 225.136719 C 227.179688 225.730469 225.472656 226.289062 223.753906 226.808594 C 222.03125 227.332031 220.304688 227.816406 218.5625 228.261719 C 216.824219 228.710938 215.074219 229.117188 213.316406 229.492188 C 211.558594 229.863281 209.792969 230.195312 208.019531 230.492188 C 206.246094 230.785156 204.46875 231.042969 202.6875 231.261719 C 200.902344 231.480469 199.117188 231.664062 197.324219 231.804688 C 195.535156 231.945312 193.742188 232.050781 191.945312 232.113281 C 190.148438 232.179688 188.351562 232.207031 186.554688 232.191406 C 184.761719 232.179688 182.964844 232.128906 181.167969 232.039062 C 179.375 231.949219 177.582031 231.820312 175.792969 231.652344 C 174.003906 231.484375 172.222656 231.28125 170.441406 231.035156 C 168.660156 230.792969 166.886719 230.511719 165.117188 230.191406 C 163.351562 229.871094 161.589844 229.511719 159.839844 229.113281 C 158.085938 228.71875 156.34375 228.285156 154.609375 227.8125 C 152.875 227.34375 151.152344 226.832031 149.441406 226.289062 C 147.726562 225.742188 146.027344 225.160156 144.34375 224.542969 C 142.65625 223.921875 140.980469 223.269531 139.324219 222.578125 C 137.664062 221.886719 136.023438 221.160156 134.394531 220.398438 C 132.765625 219.636719 131.15625 218.839844 129.5625 218.011719 C 127.972656 217.179688 126.394531 216.316406 124.839844 215.417969 C 123.285156 214.515625 121.75 213.585938 120.234375 212.621094 C 118.71875 211.65625 117.222656 210.660156 115.75 209.628906 C 114.277344 208.601562 112.828125 207.539062 111.402344 206.449219 C 109.972656 205.355469 108.570312 204.234375 107.191406 203.082031 C 106.152344 202.605469 105.070312 202.257812 103.945312 202.042969 C 102.820312 201.828125 101.6875 201.75 100.542969 201.808594 C 99.398438 201.867188 98.277344 202.066406 97.183594 202.398438 C 96.085938 202.730469 95.046875 203.1875 94.0625 203.773438 C 91.183594 205.6875 88.363281 207.691406 85.609375 209.777344 C 82.851562 211.867188 80.164062 214.039062 77.539062 216.292969 C 74.917969 218.546875 72.367188 220.882812 69.890625 223.292969 C 67.410156 225.707031 65.007812 228.191406 62.683594 230.75 C 60.359375 233.3125 58.113281 235.941406 55.949219 238.636719 C 53.785156 241.335938 51.707031 244.097656 49.714844 246.925781 C 47.722656 249.75 45.816406 252.636719 44 255.578125 C 42.1875 258.523438 40.464844 261.519531 38.832031 264.570312 C 37.203125 267.617188 35.664062 270.714844 34.226562 273.859375 C 32.785156 277.003906 31.445312 280.191406 30.199219 283.417969 C 28.957031 286.644531 27.8125 289.90625 26.769531 293.203125 C 25.726562 296.5 24.785156 299.828125 23.949219 303.183594 C 23.109375 306.539062 22.378906 309.914062 21.746094 313.316406 C 21.117188 316.714844 20.59375 320.132812 20.175781 323.566406 C 19.753906 327 19.441406 330.441406 19.234375 333.894531 C 19.027344 337.347656 18.925781 340.800781 18.933594 344.257812 C 18.933594 345.203125 19.023438 346.140625 19.207031 347.070312 C 19.390625 347.996094 19.664062 348.894531 20.027344 349.769531 C 20.386719 350.644531 20.832031 351.472656 21.355469 352.257812 C 21.882812 353.046875 22.480469 353.773438 23.148438 354.441406 C 23.816406 355.109375 24.542969 355.707031 25.328125 356.230469 C 26.113281 356.757812 26.945312 357.199219 27.816406 357.5625 C 28.691406 357.921875 29.59375 358.195312 30.519531 358.378906 C 31.445312 358.5625 32.382812 358.65625 33.328125 358.65625 L 343.109375 358.65625 C 344.054688 358.65625 344.992188 358.5625 345.917969 358.378906 C 346.847656 358.195312 347.746094 357.921875 348.621094 357.5625 C 349.492188 357.199219 350.324219 356.757812 351.109375 356.230469 C 351.894531 355.707031 352.621094 355.109375 353.292969 354.441406 C 353.960938 353.773438 354.554688 353.046875 355.082031 352.257812 C 355.605469 351.472656 356.050781 350.644531 356.410156 349.769531 C 356.773438 348.894531 357.046875 347.996094 357.230469 347.070312 C 357.414062 346.140625 357.503906 345.203125 357.503906 344.257812 C 357.503906 340.808594 357.394531 337.363281 357.183594 333.917969 C 356.96875 330.472656 356.652344 327.039062 356.230469 323.613281 C 355.804688 320.1875 355.28125 316.78125 354.648438 313.386719 C 354.019531 309.996094 353.285156 306.625 352.449219 303.277344 C 351.613281 299.929688 350.675781 296.609375 349.636719 293.320312 C 348.597656 290.027344 347.460938 286.773438 346.222656 283.550781 C 344.988281 280.328125 343.652344 277.148438 342.222656 274.007812 C 340.789062 270.871094 339.265625 267.777344 337.644531 264.730469 C 336.023438 261.683594 334.3125 258.6875 332.511719 255.746094 C 330.707031 252.804688 328.816406 249.917969 326.835938 247.089844 C 324.859375 244.265625 322.796875 241.5 320.648438 238.800781 C 318.5 236.097656 316.273438 233.464844 313.964844 230.898438 C 311.65625 228.335938 309.273438 225.84375 306.8125 223.421875 C 304.351562 221.003906 301.820312 218.660156 299.21875 216.394531 C 296.613281 214.128906 293.945312 211.945312 291.207031 209.84375 C 288.472656 207.742188 285.675781 205.722656 282.816406 203.792969 Z M 282.816406 203.792969 " fill-opacity="1" fill-rule="nonzero"/></g><g clip-path="url(#e0abc47b38)"><path fill="#ffffff" d="M 172.75 52.5 C 172.75 53.484375 172.65625 54.460938 172.460938 55.425781 C 172.269531 56.390625 171.984375 57.332031 171.609375 58.242188 C 171.230469 59.148438 170.769531 60.015625 170.222656 60.832031 C 169.675781 61.652344 169.054688 62.410156 168.355469 63.105469 C 167.660156 63.804688 166.902344 64.425781 166.082031 64.972656 C 165.265625 65.519531 164.402344 65.980469 163.492188 66.359375 C 162.582031 66.734375 161.644531 67.019531 160.675781 67.210938 C 159.710938 67.402344 158.734375 67.5 157.75 67.5 C 156.765625 67.5 155.789062 67.402344 154.824219 67.210938 C 153.859375 67.019531 152.921875 66.734375 152.011719 66.359375 C 151.101562 65.980469 150.234375 65.519531 149.417969 64.972656 C 148.597656 64.425781 147.839844 63.804688 147.144531 63.105469 C 146.449219 62.410156 145.824219 61.652344 145.277344 60.832031 C 144.730469 60.015625 144.269531 59.148438 143.890625 58.242188 C 143.515625 57.332031 143.230469 56.390625 143.039062 55.425781 C 142.847656 54.460938 142.75 53.484375 142.75 52.5 C 142.75 51.515625 142.847656 50.539062 143.039062 49.574219 C 143.230469 48.609375 143.515625 47.667969 143.890625 46.757812 C 144.269531 45.851562 144.730469 44.984375 145.277344 44.167969 C 145.824219 43.347656 146.449219 42.589844 147.144531 41.894531 C 147.839844 41.195312 148.597656 40.574219 149.417969 40.027344 C 150.234375 39.480469 151.101562 39.019531 152.011719 38.640625 C 152.921875 38.265625 153.859375 37.980469 154.824219 37.789062 C 155.789062 37.597656 156.765625 37.5 157.75 37.5 C 158.734375 37.5 159.710938 37.597656 160.675781 37.789062 C 161.644531 37.980469 162.582031 38.265625 163.492188 38.640625 C 164.402344 39.019531 165.265625 39.480469 166.082031 40.027344 C 166.902344 40.574219 167.660156 41.195312 168.355469 41.894531 C 169.054688 42.589844 169.675781 43.347656 170.222656 44.167969 C 170.769531 44.984375 171.230469 45.851562 171.609375 46.757812 C 171.984375 47.667969 172.269531 48.609375 172.460938 49.574219 C 172.65625 50.539062 172.75 51.515625 172.75 52.5 Z M 172.75 52.5 " fill-opacity="1" fill-rule="nonzero"/></g><g clip-path="url(#3be5e35a42)"><path fill="#ffffff" d="M 220.152344 52.5 C 220.152344 53.484375 220.054688 54.460938 219.863281 55.425781 C 219.671875 56.390625 219.386719 57.332031 219.007812 58.242188 C 218.632812 59.148438 218.167969 60.015625 217.621094 60.832031 C 217.074219 61.652344 216.453125 62.410156 215.757812 63.105469 C 215.0625 63.804688 214.304688 64.425781 213.484375 64.972656 C 212.664062 65.519531 211.800781 65.980469 210.890625 66.359375 C 209.980469 66.734375 209.042969 67.019531 208.078125 67.210938 C 207.109375 67.402344 206.136719 67.5 205.152344 67.5 C 204.164062 67.5 203.191406 67.402344 202.222656 67.210938 C 201.257812 67.019531 200.320312 66.734375 199.410156 66.359375 C 198.5 65.980469 197.636719 65.519531 196.816406 64.972656 C 195.996094 64.425781 195.242188 63.804688 194.542969 63.105469 C 193.847656 62.410156 193.226562 61.652344 192.679688 60.832031 C 192.132812 60.015625 191.667969 59.148438 191.292969 58.242188 C 190.914062 57.332031 190.628906 56.390625 190.4375 55.425781 C 190.246094 54.460938 190.152344 53.484375 190.152344 52.5 C 190.152344 51.515625 190.246094 50.539062 190.4375 49.574219 C 190.628906 48.609375 190.914062 47.667969 191.292969 46.757812 C 191.667969 45.851562 192.132812 44.984375 192.679688 44.167969 C 193.226562 43.347656 193.847656 42.589844 194.542969 41.894531 C 195.242188 41.195312 195.996094 40.574219 196.816406 40.027344 C 197.636719 39.480469 198.5 39.019531 199.410156 38.640625 C 200.320312 38.265625 201.257812 37.980469 202.222656 37.789062 C 203.191406 37.597656 204.164062 37.5 205.152344 37.5 C 206.136719 37.5 207.109375 37.597656 208.078125 37.789062 C 209.042969 37.980469 209.980469 38.265625 210.890625 38.640625 C 211.800781 39.019531 212.664062 39.480469 213.484375 40.027344 C 214.304688 40.574219 215.0625 41.195312 215.757812 41.894531 C 216.453125 42.589844 217.074219 43.347656 217.621094 44.167969 C 218.167969 44.984375 218.632812 45.851562 219.007812 46.757812 C 219.386719 47.667969 219.671875 48.609375 219.863281 49.574219 C 220.054688 50.539062 220.152344 51.515625 220.152344 52.5 Z M 220.152344 52.5 " fill-opacity="1" fill-rule="nonzero"/></g><path fill="#ffffff" d="M 199.832031 109.582031 C 199.832031 110.171875 199.800781 110.757812 199.746094 111.34375 C 199.6875 111.933594 199.601562 112.515625 199.484375 113.09375 C 199.371094 113.671875 199.226562 114.242188 199.054688 114.804688 C 198.886719 115.371094 198.6875 115.925781 198.460938 116.46875 C 198.234375 117.015625 197.984375 117.546875 197.707031 118.066406 C 197.429688 118.585938 197.125 119.089844 196.796875 119.582031 C 196.46875 120.070312 196.121094 120.542969 195.746094 121 C 195.371094 121.457031 194.976562 121.890625 194.558594 122.308594 C 194.140625 122.726562 193.707031 123.121094 193.25 123.496094 C 192.792969 123.871094 192.320312 124.21875 191.832031 124.546875 C 191.339844 124.875 190.835938 125.175781 190.316406 125.457031 C 189.796875 125.734375 189.265625 125.984375 188.71875 126.210938 C 188.175781 126.4375 187.621094 126.636719 187.054688 126.804688 C 186.492188 126.976562 185.921875 127.121094 185.34375 127.234375 C 184.765625 127.351562 184.183594 127.4375 183.597656 127.496094 C 183.007812 127.550781 182.421875 127.582031 181.832031 127.582031 C 181.242188 127.582031 180.652344 127.550781 180.066406 127.496094 C 179.480469 127.4375 178.898438 127.351562 178.320312 127.234375 C 177.742188 127.121094 177.171875 126.976562 176.605469 126.804688 C 176.042969 126.636719 175.488281 126.4375 174.941406 126.210938 C 174.398438 125.984375 173.867188 125.734375 173.347656 125.457031 C 172.828125 125.175781 172.320312 124.875 171.832031 124.546875 C 171.339844 124.21875 170.867188 123.871094 170.414062 123.496094 C 169.957031 123.121094 169.519531 122.726562 169.101562 122.308594 C 168.6875 121.890625 168.292969 121.457031 167.917969 121 C 167.542969 120.542969 167.191406 120.070312 166.863281 119.582031 C 166.539062 119.089844 166.234375 118.585938 165.957031 118.066406 C 165.679688 117.546875 165.425781 117.015625 165.203125 116.46875 C 164.976562 115.925781 164.777344 115.371094 164.605469 114.804688 C 164.433594 114.242188 164.292969 113.671875 164.175781 113.09375 C 164.0625 112.515625 163.976562 111.933594 163.917969 111.34375 C 163.859375 110.757812 163.832031 110.171875 163.832031 109.582031 C 163.832031 108.992188 163.859375 108.402344 163.917969 107.816406 C 163.976562 107.230469 164.0625 106.648438 164.175781 106.070312 C 164.292969 105.492188 164.433594 104.921875 164.605469 104.355469 C 164.777344 103.792969 164.976562 103.238281 165.203125 102.691406 C 165.425781 102.148438 165.679688 101.617188 165.957031 101.097656 C 166.234375 100.574219 166.539062 100.070312 166.863281 99.582031 C 167.191406 99.089844 167.542969 98.617188 167.917969 98.160156 C 168.292969 97.707031 168.6875 97.269531 169.101562 96.851562 C 169.519531 96.4375 169.957031 96.039062 170.414062 95.667969 C 170.867188 95.292969 171.339844 94.941406 171.832031 94.613281 C 172.320312 94.285156 172.828125 93.984375 173.347656 93.707031 C 173.867188 93.429688 174.398438 93.175781 174.941406 92.949219 C 175.488281 92.726562 176.042969 92.527344 176.605469 92.355469 C 177.171875 92.183594 177.742188 92.042969 178.320312 91.925781 C 178.898438 91.8125 179.480469 91.726562 180.066406 91.667969 C 180.652344 91.609375 181.242188 91.582031 181.832031 91.582031 C 182.421875 91.582031 183.007812 91.609375 183.597656 91.667969 C 184.183594 91.726562 184.765625 91.8125 185.34375 91.925781 C 185.921875 92.042969 186.492188 92.183594 187.054688 92.355469 C 187.621094 92.527344 188.175781 92.726562 188.71875 92.949219 C 189.265625 93.175781 189.796875 93.429688 190.316406 93.707031 C 190.835938 93.984375 191.339844 94.285156 191.832031 94.613281 C 192.320312 94.941406 192.792969 95.292969 193.25 95.667969 C 193.707031 96.039062 194.140625 96.4375 194.558594 96.851562 C 194.976562 97.269531 195.371094 97.707031 195.746094 98.160156 C 196.121094 98.617188 196.46875 99.089844 196.796875 99.582031 C 197.125 100.070312 197.429688 100.574219 197.707031 101.097656 C 197.984375 101.617188 198.234375 102.148438 198.460938 102.691406 C 198.6875 103.238281 198.886719 103.792969 199.054688 104.355469 C 199.226562 104.921875 199.371094 105.492188 199.484375 106.070312 C 199.601562 106.648438 199.6875 107.230469 199.746094 107.816406 C 199.800781 108.402344 199.832031 108.992188 199.832031 109.582031 Z M 199.832031 109.582031 " fill-opacity="1" fill-rule="nonzero"/><g clip-path="url(#7993ffa0af)"><path fill="#ffffff" d="M 181.832031 175.582031 C 163.363281 175.582031 156.726562 171.003906 156.03125 170.480469 C 155.277344 169.917969 154.832031 169.027344 154.832031 168.082031 L 154.832031 157.582031 C 154.832031 142.691406 166.945312 130.582031 181.832031 130.582031 C 196.71875 130.582031 208.832031 142.691406 208.832031 157.582031 L 208.832031 168.082031 C 208.832031 169.023438 208.386719 169.914062 207.632812 170.480469 C 206.9375 171.003906 200.300781 175.582031 181.832031 175.582031 Z M 181.832031 175.582031 " fill-opacity="1" fill-rule="nonzero"/></g><g clip-path="url(#3cd5d21f35)"><path fill="#ffffff" d="M 159.917969 132.976562 C 156.992188 121.234375 146.382812 112.5 133.75 112.5 C 118.863281 112.5 106.75 124.609375 106.75 139.5 L 106.75 150 C 106.75 150.941406 107.195312 151.832031 107.949219 152.398438 C 108.644531 152.921875 115.28125 157.5 133.75 157.5 C 140.148438 157.5 145.097656 156.945312 148.902344 156.203125 C 149.285156 146.980469 153.457031 138.734375 159.917969 132.976562 Z M 159.917969 132.976562 " fill-opacity="1" fill-rule="nonzero"/></g><g clip-path="url(#a665d9c3c2)"><path fill="#ffffff" d="M 229.75 112.5 C 217.160156 112.5 206.585938 121.175781 203.613281 132.855469 C 210.15625 138.628906 214.386719 146.933594 214.765625 156.238281 C 218.546875 156.960938 223.445312 157.5 229.75 157.5 C 248.214844 157.5 254.855469 152.921875 255.550781 152.398438 C 256.304688 151.835938 256.75 150.945312 256.75 150 L 256.75 139.5 C 256.75 124.609375 244.640625 112.5 229.75 112.5 Z M 229.75 112.5 " fill-opacity="1" fill-rule="nonzero"/></g><path fill="#ffffff" d="M 247.832031 91.582031 C 247.832031 92.171875 247.800781 92.757812 247.746094 93.34375 C 247.6875 93.933594 247.601562 94.515625 247.484375 95.09375 C 247.371094 95.671875 247.226562 96.242188 247.054688 96.804688 C 246.886719 97.371094 246.6875 97.925781 246.460938 98.46875 C 246.234375 99.015625 245.984375 99.546875 245.707031 100.066406 C 245.429688 100.585938 245.125 101.089844 244.796875 101.582031 C 244.46875 102.070312 244.121094 102.542969 243.746094 103 C 243.371094 103.457031 242.976562 103.890625 242.558594 104.308594 C 242.140625 104.726562 241.707031 105.121094 241.25 105.496094 C 240.792969 105.871094 240.320312 106.21875 239.832031 106.546875 C 239.339844 106.875 238.835938 107.175781 238.316406 107.457031 C 237.796875 107.734375 237.265625 107.984375 236.71875 108.210938 C 236.175781 108.4375 235.621094 108.636719 235.054688 108.804688 C 234.492188 108.976562 233.921875 109.121094 233.34375 109.234375 C 232.765625 109.351562 232.183594 109.4375 231.597656 109.496094 C 231.007812 109.550781 230.421875 109.582031 229.832031 109.582031 C 229.242188 109.582031 228.652344 109.550781 228.066406 109.496094 C 227.480469 109.4375 226.898438 109.351562 226.320312 109.234375 C 225.742188 109.121094 225.171875 108.976562 224.605469 108.804688 C 224.042969 108.636719 223.488281 108.4375 222.941406 108.210938 C 222.398438 107.984375 221.867188 107.734375 221.347656 107.457031 C 220.828125 107.175781 220.320312 106.875 219.832031 106.546875 C 219.339844 106.21875 218.867188 105.871094 218.414062 105.496094 C 217.957031 105.121094 217.519531 104.726562 217.101562 104.308594 C 216.6875 103.890625 216.292969 103.457031 215.917969 103 C 215.542969 102.542969 215.191406 102.070312 214.863281 101.582031 C 214.539062 101.089844 214.234375 100.585938 213.957031 100.066406 C 213.679688 99.546875 213.425781 99.015625 213.203125 98.46875 C 212.976562 97.925781 212.777344 97.371094 212.605469 96.804688 C 212.433594 96.242188 212.292969 95.671875 212.175781 95.09375 C 212.0625 94.515625 211.976562 93.933594 211.917969 93.34375 C 211.859375 92.757812 211.832031 92.171875 211.832031 91.582031 C 211.832031 90.992188 211.859375 90.402344 211.917969 89.816406 C 211.976562 89.230469 212.0625 88.648438 212.175781 88.070312 C 212.292969 87.492188 212.433594 86.921875 212.605469 86.355469 C 212.777344 85.792969 212.976562 85.238281 213.203125 84.691406 C 213.425781 84.148438 213.679688 83.617188 213.957031 83.097656 C 214.234375 82.574219 214.539062 82.070312 214.863281 81.582031 C 215.191406 81.089844 215.542969 80.617188 215.917969 80.160156 C 216.292969 79.707031 216.6875 79.269531 217.101562 78.851562 C 217.519531 78.4375 217.957031 78.039062 218.414062 77.667969 C 218.867188 77.292969 219.339844 76.941406 219.832031 76.613281 C 220.320312 76.285156 220.828125 75.984375 221.347656 75.707031 C 221.867188 75.429688 222.398438 75.175781 222.941406 74.949219 C 223.488281 74.726562 224.042969 74.527344 224.605469 74.355469 C 225.171875 74.183594 225.742188 74.042969 226.320312 73.925781 C 226.898438 73.8125 227.480469 73.726562 228.066406 73.667969 C 228.652344 73.609375 229.242188 73.582031 229.832031 73.582031 C 230.421875 73.582031 231.007812 73.609375 231.597656 73.667969 C 232.183594 73.726562 232.765625 73.8125 233.34375 73.925781 C 233.921875 74.042969 234.492188 74.183594 235.054688 74.355469 C 235.621094 74.527344 236.175781 74.726562 236.71875 74.949219 C 237.265625 75.175781 237.796875 75.429688 238.316406 75.707031 C 238.835938 75.984375 239.339844 76.285156 239.832031 76.613281 C 240.320312 76.941406 240.792969 77.292969 241.25 77.667969 C 241.707031 78.039062 242.140625 78.4375 242.558594 78.851562 C 242.976562 79.269531 243.371094 79.707031 243.746094 80.160156 C 244.121094 80.617188 244.46875 81.089844 244.796875 81.582031 C 245.125 82.070312 245.429688 82.574219 245.707031 83.097656 C 245.984375 83.617188 246.234375 84.148438 246.460938 84.691406 C 246.6875 85.238281 246.886719 85.792969 247.054688 86.355469 C 247.226562 86.921875 247.371094 87.492188 247.484375 88.070312 C 247.601562 88.648438 247.6875 89.230469 247.746094 89.816406 C 247.800781 90.402344 247.832031 90.992188 247.832031 91.582031 Z M 247.832031 91.582031 " fill-opacity="1" fill-rule="nonzero"/><path fill="#ffffff" d="M 151.832031 91.582031 C 151.832031 92.171875 151.800781 92.757812 151.746094 93.34375 C 151.6875 93.933594 151.601562 94.515625 151.484375 95.09375 C 151.371094 95.671875 151.226562 96.242188 151.054688 96.804688 C 150.886719 97.371094 150.6875 97.925781 150.460938 98.46875 C 150.234375 99.015625 149.984375 99.546875 149.707031 100.066406 C 149.429688 100.585938 149.125 101.089844 148.796875 101.582031 C 148.46875 102.070312 148.121094 102.542969 147.746094 103 C 147.371094 103.457031 146.976562 103.890625 146.558594 104.308594 C 146.140625 104.726562 145.707031 105.121094 145.25 105.496094 C 144.792969 105.871094 144.320312 106.21875 143.832031 106.546875 C 143.339844 106.875 142.835938 107.175781 142.316406 107.457031 C 141.796875 107.734375 141.265625 107.984375 140.71875 108.210938 C 140.175781 108.4375 139.621094 108.636719 139.054688 108.804688 C 138.492188 108.976562 137.921875 109.121094 137.34375 109.234375 C 136.765625 109.351562 136.183594 109.4375 135.597656 109.496094 C 135.007812 109.550781 134.421875 109.582031 133.832031 109.582031 C 133.242188 109.582031 132.652344 109.550781 132.066406 109.496094 C 131.480469 109.4375 130.898438 109.351562 130.320312 109.234375 C 129.742188 109.121094 129.171875 108.976562 128.605469 108.804688 C 128.042969 108.636719 127.488281 108.4375 126.941406 108.210938 C 126.398438 107.984375 125.867188 107.734375 125.347656 107.457031 C 124.828125 107.175781 124.320312 106.875 123.832031 106.546875 C 123.339844 106.21875 122.867188 105.871094 122.414062 105.496094 C 121.957031 105.121094 121.519531 104.726562 121.101562 104.308594 C 120.6875 103.890625 120.292969 103.457031 119.917969 103 C 119.542969 102.542969 119.191406 102.070312 118.863281 101.582031 C 118.539062 101.089844 118.234375 100.585938 117.957031 100.066406 C 117.679688 99.546875 117.425781 99.015625 117.203125 98.46875 C 116.976562 97.925781 116.777344 97.371094 116.605469 96.804688 C 116.433594 96.242188 116.292969 95.671875 116.175781 95.09375 C 116.0625 94.515625 115.976562 93.933594 115.917969 93.34375 C 115.859375 92.757812 115.832031 92.171875 115.832031 91.582031 C 115.832031 90.992188 115.859375 90.402344 115.917969 89.816406 C 115.976562 89.230469 116.0625 88.648438 116.175781 88.070312 C 116.292969 87.492188 116.433594 86.921875 116.605469 86.355469 C 116.777344 85.792969 116.976562 85.238281 117.203125 84.691406 C 117.425781 84.148438 117.679688 83.617188 117.957031 83.097656 C 118.234375 82.574219 118.539062 82.070312 118.863281 81.582031 C 119.191406 81.089844 119.542969 80.617188 119.917969 80.160156 C 120.292969 79.707031 120.6875 79.269531 121.101562 78.851562 C 121.519531 78.4375 121.957031 78.039062 122.414062 77.667969 C 122.867188 77.292969 123.339844 76.941406 123.832031 76.613281 C 124.320312 76.285156 124.828125 75.984375 125.347656 75.707031 C 125.867188 75.429688 126.398438 75.175781 126.941406 74.949219 C 127.488281 74.726562 128.042969 74.527344 128.605469 74.355469 C 129.171875 74.183594 129.742188 74.042969 130.320312 73.925781 C 130.898438 73.8125 131.480469 73.726562 132.066406 73.667969 C 132.652344 73.609375 133.242188 73.582031 133.832031 73.582031 C 134.421875 73.582031 135.007812 73.609375 135.597656 73.667969 C 136.183594 73.726562 136.765625 73.8125 137.34375 73.925781 C 137.921875 74.042969 138.492188 74.183594 139.054688 74.355469 C 139.621094 74.527344 140.175781 74.726562 140.71875 74.949219 C 141.265625 75.175781 141.796875 75.429688 142.316406 75.707031 C 142.835938 75.984375 143.339844 76.285156 143.832031 76.613281 C 144.320312 76.941406 144.792969 77.292969 145.25 77.667969 C 145.707031 78.039062 146.140625 78.4375 146.558594 78.851562 C 146.976562 79.269531 147.371094 79.707031 147.746094 80.160156 C 148.121094 80.617188 148.46875 81.089844 148.796875 81.582031 C 149.125 82.070312 149.429688 82.574219 149.707031 83.097656 C 149.984375 83.617188 150.234375 84.148438 150.460938 84.691406 C 150.6875 85.238281 150.886719 85.792969 151.054688 86.355469 C 151.226562 86.921875 151.371094 87.492188 151.484375 88.070312 C 151.601562 88.648438 151.6875 89.230469 151.746094 89.816406 C 151.800781 90.402344 151.832031 90.992188 151.832031 91.582031 Z M 151.832031 91.582031 " fill-opacity="1" fill-rule="nonzero"/><path fill="#ffffff" d="M 205.832031 109.582031 C 205.832031 112.945312 205.132812 116.144531 203.878906 119.050781 C 206.804688 115.34375 210.496094 112.324219 214.679688 110.167969 C 209.285156 105.765625 205.835938 99.070312 205.835938 91.582031 C 205.835938 84.046875 209.328125 77.324219 214.773438 72.921875 C 211.90625 71.390625 208.667969 70.5 205.152344 70.5 C 195.433594 70.5 187.410156 76.933594 184.960938 85.808594 C 196.714844 87.351562 205.832031 97.410156 205.832031 109.582031 Z M 205.832031 109.582031 " fill-opacity="1" fill-rule="nonzero"/><path fill="#ffffff" d="M 157.832031 91.582031 C 157.832031 99.097656 154.351562 105.8125 148.925781 110.21875 C 153.292969 112.484375 157.109375 115.703125 160.078125 119.65625 C 158.652344 116.589844 157.832031 113.179688 157.832031 109.582031 C 157.832031 97.660156 166.574219 87.773438 177.972656 85.921875 C 175.5625 76.984375 167.507812 70.5 157.75 70.5 C 154.414062 70.5 151.320312 71.292969 148.5625 72.679688 C 154.191406 77.074219 157.832031 83.902344 157.832031 91.582031 Z M 157.832031 91.582031 " fill-opacity="1" fill-rule="nonzero"/></svg>