<svg xmlns="http://www.w3.org/2000/svg" xmlns:xlink="http://www.w3.org/1999/xlink" width="500" zoomAndPan="magnify" viewBox="0 0 375 374.999991" height="500" preserveAspectRatio="xMidYMid meet" version="1.0"><defs><clipPath id="71cd2dbf2c"><path d="M 18 16.195312 L 358 16.195312 L 358 358.945312 L 18 358.945312 Z M 18 16.195312 " clip-rule="nonzero"/></clipPath><clipPath id="bf33c8b802"><path d="M 142 37.5 L 173 37.5 L 173 68 L 142 68 Z M 142 37.5 " clip-rule="nonzero"/></clipPath><clipPath id="91986dbd28"><path d="M 190 37.5 L 221 37.5 L 221 68 L 190 68 Z M 190 37.5 " clip-rule="nonzero"/></clipPath><clipPath id="1bde364346"><path d="M 154 130 L 209 130 L 209 175.5 L 154 175.5 Z M 154 130 " clip-rule="nonzero"/></clipPath><clipPath id="78df5d0faf"><path d="M 106.75 112 L 160 112 L 160 158 L 106.75 158 Z M 106.75 112 " clip-rule="nonzero"/></clipPath><clipPath id="5b104de4f9"><path d="M 203 112 L 256.75 112 L 256.75 158 L 203 158 Z M 203 112 " clip-rule="nonzero"/></clipPath></defs><g clip-path="url(#71cd2dbf2c)"><path fill="#000000" d="M 94.316406 110.09375 C 94.316406 108.558594 94.355469 107.027344 94.433594 105.496094 C 94.511719 103.960938 94.625 102.433594 94.777344 100.90625 C 94.925781 99.382812 95.117188 97.859375 95.34375 96.34375 C 95.570312 94.824219 95.832031 93.316406 96.132812 91.8125 C 96.433594 90.308594 96.769531 88.8125 97.144531 87.324219 C 97.515625 85.835938 97.925781 84.359375 98.375 82.890625 C 98.820312 81.425781 99.300781 79.96875 99.820312 78.523438 C 100.335938 77.082031 100.890625 75.652344 101.476562 74.234375 C 102.0625 72.816406 102.6875 71.417969 103.34375 70.03125 C 104 68.644531 104.6875 67.273438 105.410156 65.921875 C 106.136719 64.570312 106.890625 63.238281 107.679688 61.921875 C 108.46875 60.605469 109.289062 59.3125 110.140625 58.035156 C 110.996094 56.761719 111.878906 55.507812 112.792969 54.277344 C 113.703125 53.042969 114.648438 51.835938 115.621094 50.648438 C 116.59375 49.464844 117.597656 48.304688 118.625 47.167969 C 119.65625 46.03125 120.714844 44.917969 121.796875 43.835938 C 122.882812 42.75 123.992188 41.695312 125.128906 40.664062 C 126.265625 39.632812 127.425781 38.632812 128.609375 37.660156 C 129.796875 36.683594 131.003906 35.742188 132.234375 34.828125 C 133.46875 33.914062 134.722656 33.03125 135.996094 32.179688 C 137.269531 31.324219 138.566406 30.503906 139.882812 29.714844 C 141.195312 28.925781 142.53125 28.171875 143.882812 27.445312 C 145.234375 26.722656 146.605469 26.03125 147.988281 25.375 C 149.375 24.71875 150.777344 24.097656 152.195312 23.507812 C 153.609375 22.921875 155.039062 22.371094 156.484375 21.851562 C 157.929688 21.332031 159.382812 20.851562 160.851562 20.40625 C 162.316406 19.960938 163.796875 19.550781 165.28125 19.175781 C 166.769531 18.800781 168.265625 18.464844 169.769531 18.164062 C 171.273438 17.863281 172.785156 17.597656 174.300781 17.371094 C 175.816406 17.144531 177.339844 16.957031 178.867188 16.804688 C 180.390625 16.652344 181.921875 16.539062 183.453125 16.460938 C 184.984375 16.386719 186.515625 16.34375 188.050781 16.34375 C 311.945312 20.726562 312.1875 199.066406 188.367188 203.824219 C 186.832031 203.828125 185.296875 203.796875 183.761719 203.722656 C 182.226562 203.652344 180.691406 203.542969 179.164062 203.394531 C 177.632812 203.246094 176.105469 203.0625 174.585938 202.839844 C 173.066406 202.621094 171.550781 202.359375 170.042969 202.0625 C 168.535156 201.765625 167.035156 201.433594 165.542969 201.0625 C 164.050781 200.691406 162.570312 200.285156 161.097656 199.84375 C 159.625 199.402344 158.167969 198.921875 156.71875 198.40625 C 155.269531 197.890625 153.835938 197.34375 152.414062 196.757812 C 150.992188 196.171875 149.585938 195.550781 148.195312 194.898438 C 146.804688 194.242188 145.433594 193.554688 144.074219 192.832031 C 142.71875 192.113281 141.378906 191.355469 140.0625 190.570312 C 138.742188 189.78125 137.441406 188.960938 136.160156 188.109375 C 134.882812 187.257812 133.625 186.375 132.386719 185.464844 C 131.152344 184.550781 129.9375 183.605469 128.75 182.632812 C 127.558594 181.660156 126.394531 180.660156 125.253906 179.628906 C 124.113281 178.597656 123 177.542969 121.910156 176.457031 C 120.820312 175.371094 119.761719 174.261719 118.726562 173.125 C 117.691406 171.988281 116.6875 170.824219 115.710938 169.640625 C 114.734375 168.453125 113.785156 167.242188 112.867188 166.007812 C 111.949219 164.777344 111.0625 163.523438 110.207031 162.246094 C 109.351562 160.96875 108.527344 159.671875 107.738281 158.355469 C 106.945312 157.039062 106.183594 155.703125 105.457031 154.347656 C 104.730469 152.992188 104.039062 151.621094 103.378906 150.234375 C 102.722656 148.84375 102.097656 147.441406 101.507812 146.023438 C 100.917969 144.601562 100.363281 143.167969 99.84375 141.722656 C 99.324219 140.277344 98.839844 138.820312 98.390625 137.347656 C 97.941406 135.878906 97.53125 134.398438 97.15625 132.90625 C 96.78125 131.417969 96.441406 129.917969 96.140625 128.410156 C 95.839844 126.90625 95.574219 125.390625 95.347656 123.871094 C 95.121094 122.351562 94.929688 120.828125 94.777344 119.296875 C 94.625 117.769531 94.511719 116.234375 94.433594 114.699219 C 94.355469 113.164062 94.316406 111.628906 94.316406 110.09375 Z M 282.925781 203.871094 C 281.675781 203.105469 280.34375 202.53125 278.929688 202.152344 C 277.515625 201.769531 276.078125 201.597656 274.613281 201.632812 C 273.148438 201.671875 271.722656 201.914062 270.328125 202.363281 C 268.933594 202.8125 267.632812 203.449219 266.425781 204.277344 C 265.027344 205.410156 263.609375 206.511719 262.167969 207.585938 C 260.722656 208.65625 259.257812 209.695312 257.769531 210.707031 C 256.285156 211.714844 254.773438 212.691406 253.246094 213.636719 C 251.714844 214.578125 250.167969 215.488281 248.597656 216.367188 C 247.027344 217.242188 245.441406 218.085938 243.835938 218.894531 C 242.230469 219.703125 240.609375 220.476562 238.96875 221.21875 C 237.332031 221.957031 235.679688 222.660156 234.007812 223.328125 C 232.339844 223.996094 230.65625 224.625 228.960938 225.222656 C 227.265625 225.816406 225.558594 226.375 223.835938 226.894531 C 222.117188 227.417969 220.386719 227.902344 218.644531 228.351562 C 216.90625 228.796875 215.15625 229.207031 213.394531 229.578125 C 211.636719 229.949219 209.871094 230.285156 208.097656 230.578125 C 206.324219 230.875 204.546875 231.132812 202.761719 231.351562 C 200.980469 231.570312 199.191406 231.75 197.398438 231.894531 C 195.609375 232.035156 193.8125 232.136719 192.015625 232.203125 C 190.222656 232.269531 188.425781 232.292969 186.625 232.28125 C 184.828125 232.269531 183.03125 232.21875 181.238281 232.128906 C 179.441406 232.039062 177.648438 231.910156 175.859375 231.742188 C 174.070312 231.574219 172.285156 231.367188 170.503906 231.125 C 168.722656 230.878906 166.949219 230.597656 165.179688 230.277344 C 163.410156 229.957031 161.648438 229.597656 159.898438 229.203125 C 158.144531 228.804688 156.398438 228.371094 154.664062 227.902344 C 152.929688 227.429688 151.207031 226.921875 149.496094 226.375 C 147.78125 225.828125 146.082031 225.246094 144.394531 224.628906 C 142.707031 224.007812 141.035156 223.351562 139.375 222.664062 C 137.714844 221.972656 136.070312 221.246094 134.441406 220.484375 C 132.816406 219.722656 131.203125 218.925781 129.609375 218.09375 C 128.015625 217.261719 126.441406 216.398438 124.886719 215.496094 C 123.328125 214.597656 121.792969 213.667969 120.277344 212.703125 C 118.757812 211.734375 117.265625 210.738281 115.792969 209.707031 C 114.316406 208.679688 112.867188 207.617188 111.441406 206.527344 C 110.011719 205.433594 108.609375 204.3125 107.230469 203.160156 C 106.1875 202.679688 105.105469 202.332031 103.980469 202.117188 C 102.855469 201.902344 101.722656 201.824219 100.578125 201.886719 C 99.433594 201.945312 98.3125 202.140625 97.214844 202.472656 C 96.121094 202.804688 95.078125 203.265625 94.09375 203.847656 C 91.214844 205.765625 88.394531 207.769531 85.636719 209.859375 C 82.878906 211.949219 80.191406 214.121094 77.566406 216.375 C 74.941406 218.632812 72.390625 220.964844 69.910156 223.378906 C 67.433594 225.792969 65.027344 228.277344 62.703125 230.839844 C 60.375 233.398438 58.128906 236.03125 55.964844 238.730469 C 53.800781 241.429688 51.722656 244.191406 49.730469 247.019531 C 47.734375 249.847656 45.828125 252.734375 44.011719 255.675781 C 42.195312 258.621094 40.472656 261.621094 38.839844 264.671875 C 37.210938 267.722656 35.671875 270.820312 34.234375 273.964844 C 32.792969 277.109375 31.449219 280.296875 30.207031 283.527344 C 28.960938 286.753906 27.816406 290.019531 26.773438 293.316406 C 25.730469 296.617188 24.789062 299.941406 23.953125 303.300781 C 23.113281 306.65625 22.378906 310.035156 21.75 313.4375 C 21.121094 316.839844 20.59375 320.257812 20.175781 323.691406 C 19.757812 327.125 19.441406 330.570312 19.234375 334.023438 C 19.027344 337.476562 18.929688 340.933594 18.933594 344.394531 C 18.933594 345.339844 19.027344 346.277344 19.210938 347.203125 C 19.394531 348.132812 19.667969 349.03125 20.027344 349.90625 C 20.390625 350.78125 20.832031 351.609375 21.359375 352.398438 C 21.882812 353.183594 22.480469 353.910156 23.148438 354.578125 C 23.820312 355.25 24.546875 355.84375 25.332031 356.371094 C 26.117188 356.894531 26.949219 357.339844 27.824219 357.703125 C 28.695312 358.0625 29.597656 358.335938 30.523438 358.519531 C 31.453125 358.703125 32.390625 358.796875 33.335938 358.796875 L 343.242188 358.796875 C 344.191406 358.796875 345.125 358.703125 346.054688 358.519531 C 346.980469 358.335938 347.882812 358.0625 348.757812 357.703125 C 349.628906 357.339844 350.460938 356.894531 351.246094 356.371094 C 352.03125 355.84375 352.761719 355.25 353.429688 354.578125 C 354.097656 353.910156 354.695312 353.183594 355.21875 352.398438 C 355.746094 351.609375 356.1875 350.78125 356.550781 349.90625 C 356.914062 349.03125 357.1875 348.132812 357.371094 347.203125 C 357.554688 346.277344 357.644531 345.339844 357.644531 344.394531 C 357.644531 340.941406 357.535156 337.492188 357.320312 334.046875 C 357.109375 330.601562 356.792969 327.167969 356.367188 323.738281 C 355.945312 320.3125 355.417969 316.902344 354.789062 313.507812 C 354.15625 310.117188 353.425781 306.742188 352.589844 303.394531 C 351.75 300.046875 350.8125 296.726562 349.773438 293.433594 C 348.734375 290.140625 347.597656 286.882812 346.359375 283.660156 C 345.121094 280.4375 343.789062 277.257812 342.355469 274.113281 C 340.921875 270.972656 339.398438 267.878906 337.777344 264.832031 C 336.15625 261.78125 334.445312 258.789062 332.640625 255.84375 C 330.835938 252.898438 328.945312 250.015625 326.964844 247.1875 C 324.984375 244.359375 322.921875 241.59375 320.773438 238.890625 C 318.625 236.1875 316.394531 233.554688 314.085938 230.988281 C 311.777344 228.421875 309.394531 225.929688 306.933594 223.507812 C 304.472656 221.085938 301.9375 218.742188 299.335938 216.476562 C 296.730469 214.210938 294.058594 212.027344 291.320312 209.921875 C 288.585938 207.820312 285.785156 205.800781 282.925781 203.871094 Z M 282.925781 203.871094 " fill-opacity="1" fill-rule="nonzero"/></g><g clip-path="url(#bf33c8b802)"><path fill="#000000" d="M 172.75 52.5 C 172.75 53.484375 172.65625 54.460938 172.460938 55.425781 C 172.269531 56.390625 171.984375 57.332031 171.609375 58.242188 C 171.230469 59.148438 170.769531 60.015625 170.222656 60.832031 C 169.675781 61.652344 169.054688 62.410156 168.355469 63.105469 C 167.660156 63.804688 166.902344 64.425781 166.082031 64.972656 C 165.265625 65.519531 164.402344 65.980469 163.492188 66.359375 C 162.582031 66.734375 161.644531 67.019531 160.675781 67.210938 C 159.710938 67.402344 158.734375 67.5 157.75 67.5 C 156.765625 67.5 155.789062 67.402344 154.824219 67.210938 C 153.859375 67.019531 152.921875 66.734375 152.011719 66.359375 C 151.101562 65.980469 150.234375 65.519531 149.417969 64.972656 C 148.597656 64.425781 147.839844 63.804688 147.144531 63.105469 C 146.449219 62.410156 145.824219 61.652344 145.277344 60.832031 C 144.730469 60.015625 144.269531 59.148438 143.890625 58.242188 C 143.515625 57.332031 143.230469 56.390625 143.039062 55.425781 C 142.847656 54.460938 142.75 53.484375 142.75 52.5 C 142.75 51.515625 142.847656 50.539062 143.039062 49.574219 C 143.230469 48.609375 143.515625 47.667969 143.890625 46.757812 C 144.269531 45.851562 144.730469 44.984375 145.277344 44.167969 C 145.824219 43.347656 146.449219 42.589844 147.144531 41.894531 C 147.839844 41.195312 148.597656 40.574219 149.417969 40.027344 C 150.234375 39.480469 151.101562 39.019531 152.011719 38.640625 C 152.921875 38.265625 153.859375 37.980469 154.824219 37.789062 C 155.789062 37.597656 156.765625 37.5 157.75 37.5 C 158.734375 37.5 159.710938 37.597656 160.675781 37.789062 C 161.644531 37.980469 162.582031 38.265625 163.492188 38.640625 C 164.402344 39.019531 165.265625 39.480469 166.082031 40.027344 C 166.902344 40.574219 167.660156 41.195312 168.355469 41.894531 C 169.054688 42.589844 169.675781 43.347656 170.222656 44.167969 C 170.769531 44.984375 171.230469 45.851562 171.609375 46.757812 C 171.984375 47.667969 172.269531 48.609375 172.460938 49.574219 C 172.65625 50.539062 172.75 51.515625 172.75 52.5 Z M 172.75 52.5 " fill-opacity="1" fill-rule="nonzero"/></g><g clip-path="url(#91986dbd28)"><path fill="#000000" d="M 220.152344 52.5 C 220.152344 53.484375 220.054688 54.460938 219.863281 55.425781 C 219.671875 56.390625 219.386719 57.332031 219.007812 58.242188 C 218.632812 59.148438 218.167969 60.015625 217.621094 60.832031 C 217.074219 61.652344 216.453125 62.410156 215.757812 63.105469 C 215.0625 63.804688 214.304688 64.425781 213.484375 64.972656 C 212.664062 65.519531 211.800781 65.980469 210.890625 66.359375 C 209.980469 66.734375 209.042969 67.019531 208.078125 67.210938 C 207.109375 67.402344 206.136719 67.5 205.152344 67.5 C 204.164062 67.5 203.191406 67.402344 202.222656 67.210938 C 201.257812 67.019531 200.320312 66.734375 199.410156 66.359375 C 198.5 65.980469 197.636719 65.519531 196.816406 64.972656 C 195.996094 64.425781 195.242188 63.804688 194.542969 63.105469 C 193.847656 62.410156 193.226562 61.652344 192.679688 60.832031 C 192.132812 60.015625 191.667969 59.148438 191.292969 58.242188 C 190.914062 57.332031 190.628906 56.390625 190.4375 55.425781 C 190.246094 54.460938 190.152344 53.484375 190.152344 52.5 C 190.152344 51.515625 190.246094 50.539062 190.4375 49.574219 C 190.628906 48.609375 190.914062 47.667969 191.292969 46.757812 C 191.667969 45.851562 192.132812 44.984375 192.679688 44.167969 C 193.226562 43.347656 193.847656 42.589844 194.542969 41.894531 C 195.242188 41.195312 195.996094 40.574219 196.816406 40.027344 C 197.636719 39.480469 198.5 39.019531 199.410156 38.640625 C 200.320312 38.265625 201.257812 37.980469 202.222656 37.789062 C 203.191406 37.597656 204.164062 37.5 205.152344 37.5 C 206.136719 37.5 207.109375 37.597656 208.078125 37.789062 C 209.042969 37.980469 209.980469 38.265625 210.890625 38.640625 C 211.800781 39.019531 212.664062 39.480469 213.484375 40.027344 C 214.304688 40.574219 215.0625 41.195312 215.757812 41.894531 C 216.453125 42.589844 217.074219 43.347656 217.621094 44.167969 C 218.167969 44.984375 218.632812 45.851562 219.007812 46.757812 C 219.386719 47.667969 219.671875 48.609375 219.863281 49.574219 C 220.054688 50.539062 220.152344 51.515625 220.152344 52.5 Z M 220.152344 52.5 " fill-opacity="1" fill-rule="nonzero"/></g><path fill="#000000" d="M 199.832031 109.582031 C 199.832031 110.171875 199.800781 110.757812 199.746094 111.34375 C 199.6875 111.933594 199.601562 112.515625 199.484375 113.09375 C 199.371094 113.671875 199.226562 114.242188 199.054688 114.804688 C 198.886719 115.371094 198.6875 115.925781 198.460938 116.46875 C 198.234375 117.015625 197.984375 117.546875 197.707031 118.066406 C 197.429688 118.585938 197.125 119.089844 196.796875 119.582031 C 196.46875 120.070312 196.121094 120.542969 195.746094 121 C 195.371094 121.457031 194.976562 121.890625 194.558594 122.308594 C 194.140625 122.726562 193.707031 123.121094 193.25 123.496094 C 192.792969 123.871094 192.320312 124.21875 191.832031 124.546875 C 191.339844 124.875 190.835938 125.175781 190.316406 125.457031 C 189.796875 125.734375 189.265625 125.984375 188.71875 126.210938 C 188.175781 126.4375 187.621094 126.636719 187.054688 126.804688 C 186.492188 126.976562 185.921875 127.121094 185.34375 127.234375 C 184.765625 127.351562 184.183594 127.4375 183.597656 127.496094 C 183.007812 127.550781 182.421875 127.582031 181.832031 127.582031 C 181.242188 127.582031 180.652344 127.550781 180.066406 127.496094 C 179.480469 127.4375 178.898438 127.351562 178.320312 127.234375 C 177.742188 127.121094 177.171875 126.976562 176.605469 126.804688 C 176.042969 126.636719 175.488281 126.4375 174.941406 126.210938 C 174.398438 125.984375 173.867188 125.734375 173.347656 125.457031 C 172.828125 125.175781 172.320312 124.875 171.832031 124.546875 C 171.339844 124.21875 170.867188 123.871094 170.414062 123.496094 C 169.957031 123.121094 169.519531 122.726562 169.101562 122.308594 C 168.6875 121.890625 168.292969 121.457031 167.917969 121 C 167.542969 120.542969 167.191406 120.070312 166.863281 119.582031 C 166.539062 119.089844 166.234375 118.585938 165.957031 118.066406 C 165.679688 117.546875 165.425781 117.015625 165.203125 116.46875 C 164.976562 115.925781 164.777344 115.371094 164.605469 114.804688 C 164.433594 114.242188 164.292969 113.671875 164.175781 113.09375 C 164.0625 112.515625 163.976562 111.933594 163.917969 111.34375 C 163.859375 110.757812 163.832031 110.171875 163.832031 109.582031 C 163.832031 108.992188 163.859375 108.402344 163.917969 107.816406 C 163.976562 107.230469 164.0625 106.648438 164.175781 106.070312 C 164.292969 105.492188 164.433594 104.921875 164.605469 104.355469 C 164.777344 103.792969 164.976562 103.238281 165.203125 102.691406 C 165.425781 102.148438 165.679688 101.617188 165.957031 101.097656 C 166.234375 100.574219 166.539062 100.070312 166.863281 99.582031 C 167.191406 99.089844 167.542969 98.617188 167.917969 98.160156 C 168.292969 97.707031 168.6875 97.269531 169.101562 96.851562 C 169.519531 96.4375 169.957031 96.039062 170.414062 95.667969 C 170.867188 95.292969 171.339844 94.941406 171.832031 94.613281 C 172.320312 94.285156 172.828125 93.984375 173.347656 93.707031 C 173.867188 93.429688 174.398438 93.175781 174.941406 92.949219 C 175.488281 92.726562 176.042969 92.527344 176.605469 92.355469 C 177.171875 92.183594 177.742188 92.042969 178.320312 91.925781 C 178.898438 91.8125 179.480469 91.726562 180.066406 91.667969 C 180.652344 91.609375 181.242188 91.582031 181.832031 91.582031 C 182.421875 91.582031 183.007812 91.609375 183.597656 91.667969 C 184.183594 91.726562 184.765625 91.8125 185.34375 91.925781 C 185.921875 92.042969 186.492188 92.183594 187.054688 92.355469 C 187.621094 92.527344 188.175781 92.726562 188.71875 92.949219 C 189.265625 93.175781 189.796875 93.429688 190.316406 93.707031 C 190.835938 93.984375 191.339844 94.285156 191.832031 94.613281 C 192.320312 94.941406 192.792969 95.292969 193.25 95.667969 C 193.707031 96.039062 194.140625 96.4375 194.558594 96.851562 C 194.976562 97.269531 195.371094 97.707031 195.746094 98.160156 C 196.121094 98.617188 196.46875 99.089844 196.796875 99.582031 C 197.125 100.070312 197.429688 100.574219 197.707031 101.097656 C 197.984375 101.617188 198.234375 102.148438 198.460938 102.691406 C 198.6875 103.238281 198.886719 103.792969 199.054688 104.355469 C 199.226562 104.921875 199.371094 105.492188 199.484375 106.070312 C 199.601562 106.648438 199.6875 107.230469 199.746094 107.816406 C 199.800781 108.402344 199.832031 108.992188 199.832031 109.582031 Z M 199.832031 109.582031 " fill-opacity="1" fill-rule="nonzero"/><g clip-path="url(#1bde364346)"><path fill="#000000" d="M 181.832031 175.582031 C 163.363281 175.582031 156.726562 171.003906 156.03125 170.480469 C 155.277344 169.917969 154.832031 169.027344 154.832031 168.082031 L 154.832031 157.582031 C 154.832031 142.691406 166.945312 130.582031 181.832031 130.582031 C 196.71875 130.582031 208.832031 142.691406 208.832031 157.582031 L 208.832031 168.082031 C 208.832031 169.023438 208.386719 169.914062 207.632812 170.480469 C 206.9375 171.003906 200.300781 175.582031 181.832031 175.582031 Z M 181.832031 175.582031 " fill-opacity="1" fill-rule="nonzero"/></g><g clip-path="url(#78df5d0faf)"><path fill="#000000" d="M 159.917969 132.976562 C 156.992188 121.234375 146.382812 112.5 133.75 112.5 C 118.863281 112.5 106.75 124.609375 106.75 139.5 L 106.75 150 C 106.75 150.941406 107.195312 151.832031 107.949219 152.398438 C 108.644531 152.921875 115.28125 157.5 133.75 157.5 C 140.148438 157.5 145.097656 156.945312 148.902344 156.203125 C 149.285156 146.980469 153.457031 138.734375 159.917969 132.976562 Z M 159.917969 132.976562 " fill-opacity="1" fill-rule="nonzero"/></g><g clip-path="url(#5b104de4f9)"><path fill="#000000" d="M 229.75 112.5 C 217.160156 112.5 206.585938 121.175781 203.613281 132.855469 C 210.15625 138.628906 214.386719 146.933594 214.765625 156.238281 C 218.546875 156.960938 223.445312 157.5 229.75 157.5 C 248.214844 157.5 254.855469 152.921875 255.550781 152.398438 C 256.304688 151.835938 256.75 150.945312 256.75 150 L 256.75 139.5 C 256.75 124.609375 244.640625 112.5 229.75 112.5 Z M 229.75 112.5 " fill-opacity="1" fill-rule="nonzero"/></g><path fill="#000000" d="M 247.832031 91.582031 C 247.832031 92.171875 247.800781 92.757812 247.746094 93.34375 C 247.6875 93.933594 247.601562 94.515625 247.484375 95.09375 C 247.371094 95.671875 247.226562 96.242188 247.054688 96.804688 C 246.886719 97.371094 246.6875 97.925781 246.460938 98.46875 C 246.234375 99.015625 245.984375 99.546875 245.707031 100.066406 C 245.429688 100.585938 245.125 101.089844 244.796875 101.582031 C 244.46875 102.070312 244.121094 102.542969 243.746094 103 C 243.371094 103.457031 242.976562 103.890625 242.558594 104.308594 C 242.140625 104.726562 241.707031 105.121094 241.25 105.496094 C 240.792969 105.871094 240.320312 106.21875 239.832031 106.546875 C 239.339844 106.875 238.835938 107.175781 238.316406 107.457031 C 237.796875 107.734375 237.265625 107.984375 236.71875 108.210938 C 236.175781 108.4375 235.621094 108.636719 235.054688 108.804688 C 234.492188 108.976562 233.921875 109.121094 233.34375 109.234375 C 232.765625 109.351562 232.183594 109.4375 231.597656 109.496094 C 231.007812 109.550781 230.421875 109.582031 229.832031 109.582031 C 229.242188 109.582031 228.652344 109.550781 228.066406 109.496094 C 227.480469 109.4375 226.898438 109.351562 226.320312 109.234375 C 225.742188 109.121094 225.171875 108.976562 224.605469 108.804688 C 224.042969 108.636719 223.488281 108.4375 222.941406 108.210938 C 222.398438 107.984375 221.867188 107.734375 221.347656 107.457031 C 220.828125 107.175781 220.320312 106.875 219.832031 106.546875 C 219.339844 106.21875 218.867188 105.871094 218.414062 105.496094 C 217.957031 105.121094 217.519531 104.726562 217.101562 104.308594 C 216.6875 103.890625 216.292969 103.457031 215.917969 103 C 215.542969 102.542969 215.191406 102.070312 214.863281 101.582031 C 214.539062 101.089844 214.234375 100.585938 213.957031 100.066406 C 213.679688 99.546875 213.425781 99.015625 213.203125 98.46875 C 212.976562 97.925781 212.777344 97.371094 212.605469 96.804688 C 212.433594 96.242188 212.292969 95.671875 212.175781 95.09375 C 212.0625 94.515625 211.976562 93.933594 211.917969 93.34375 C 211.859375 92.757812 211.832031 92.171875 211.832031 91.582031 C 211.832031 90.992188 211.859375 90.402344 211.917969 89.816406 C 211.976562 89.230469 212.0625 88.648438 212.175781 88.070312 C 212.292969 87.492188 212.433594 86.921875 212.605469 86.355469 C 212.777344 85.792969 212.976562 85.238281 213.203125 84.691406 C 213.425781 84.148438 213.679688 83.617188 213.957031 83.097656 C 214.234375 82.574219 214.539062 82.070312 214.863281 81.582031 C 215.191406 81.089844 215.542969 80.617188 215.917969 80.160156 C 216.292969 79.707031 216.6875 79.269531 217.101562 78.851562 C 217.519531 78.4375 217.957031 78.039062 218.414062 77.667969 C 218.867188 77.292969 219.339844 76.941406 219.832031 76.613281 C 220.320312 76.285156 220.828125 75.984375 221.347656 75.707031 C 221.867188 75.429688 222.398438 75.175781 222.941406 74.949219 C 223.488281 74.726562 224.042969 74.527344 224.605469 74.355469 C 225.171875 74.183594 225.742188 74.042969 226.320312 73.925781 C 226.898438 73.8125 227.480469 73.726562 228.066406 73.667969 C 228.652344 73.609375 229.242188 73.582031 229.832031 73.582031 C 230.421875 73.582031 231.007812 73.609375 231.597656 73.667969 C 232.183594 73.726562 232.765625 73.8125 233.34375 73.925781 C 233.921875 74.042969 234.492188 74.183594 235.054688 74.355469 C 235.621094 74.527344 236.175781 74.726562 236.71875 74.949219 C 237.265625 75.175781 237.796875 75.429688 238.316406 75.707031 C 238.835938 75.984375 239.339844 76.285156 239.832031 76.613281 C 240.320312 76.941406 240.792969 77.292969 241.25 77.667969 C 241.707031 78.039062 242.140625 78.4375 242.558594 78.851562 C 242.976562 79.269531 243.371094 79.707031 243.746094 80.160156 C 244.121094 80.617188 244.46875 81.089844 244.796875 81.582031 C 245.125 82.070312 245.429688 82.574219 245.707031 83.097656 C 245.984375 83.617188 246.234375 84.148438 246.460938 84.691406 C 246.6875 85.238281 246.886719 85.792969 247.054688 86.355469 C 247.226562 86.921875 247.371094 87.492188 247.484375 88.070312 C 247.601562 88.648438 247.6875 89.230469 247.746094 89.816406 C 247.800781 90.402344 247.832031 90.992188 247.832031 91.582031 Z M 247.832031 91.582031 " fill-opacity="1" fill-rule="nonzero"/><path fill="#000000" d="M 151.832031 91.582031 C 151.832031 92.171875 151.800781 92.757812 151.746094 93.34375 C 151.6875 93.933594 151.601562 94.515625 151.484375 95.09375 C 151.371094 95.671875 151.226562 96.242188 151.054688 96.804688 C 150.886719 97.371094 150.6875 97.925781 150.460938 98.46875 C 150.234375 99.015625 149.984375 99.546875 149.707031 100.066406 C 149.429688 100.585938 149.125 101.089844 148.796875 101.582031 C 148.46875 102.070312 148.121094 102.542969 147.746094 103 C 147.371094 103.457031 146.976562 103.890625 146.558594 104.308594 C 146.140625 104.726562 145.707031 105.121094 145.25 105.496094 C 144.792969 105.871094 144.320312 106.21875 143.832031 106.546875 C 143.339844 106.875 142.835938 107.175781 142.316406 107.457031 C 141.796875 107.734375 141.265625 107.984375 140.71875 108.210938 C 140.175781 108.4375 139.621094 108.636719 139.054688 108.804688 C 138.492188 108.976562 137.921875 109.121094 137.34375 109.234375 C 136.765625 109.351562 136.183594 109.4375 135.597656 109.496094 C 135.007812 109.550781 134.421875 109.582031 133.832031 109.582031 C 133.242188 109.582031 132.652344 109.550781 132.066406 109.496094 C 131.480469 109.4375 130.898438 109.351562 130.320312 109.234375 C 129.742188 109.121094 129.171875 108.976562 128.605469 108.804688 C 128.042969 108.636719 127.488281 108.4375 126.941406 108.210938 C 126.398438 107.984375 125.867188 107.734375 125.347656 107.457031 C 124.828125 107.175781 124.320312 106.875 123.832031 106.546875 C 123.339844 106.21875 122.867188 105.871094 122.414062 105.496094 C 121.957031 105.121094 121.519531 104.726562 121.101562 104.308594 C 120.6875 103.890625 120.292969 103.457031 119.917969 103 C 119.542969 102.542969 119.191406 102.070312 118.863281 101.582031 C 118.539062 101.089844 118.234375 100.585938 117.957031 100.066406 C 117.679688 99.546875 117.425781 99.015625 117.203125 98.46875 C 116.976562 97.925781 116.777344 97.371094 116.605469 96.804688 C 116.433594 96.242188 116.292969 95.671875 116.175781 95.09375 C 116.0625 94.515625 115.976562 93.933594 115.917969 93.34375 C 115.859375 92.757812 115.832031 92.171875 115.832031 91.582031 C 115.832031 90.992188 115.859375 90.402344 115.917969 89.816406 C 115.976562 89.230469 116.0625 88.648438 116.175781 88.070312 C 116.292969 87.492188 116.433594 86.921875 116.605469 86.355469 C 116.777344 85.792969 116.976562 85.238281 117.203125 84.691406 C 117.425781 84.148438 117.679688 83.617188 117.957031 83.097656 C 118.234375 82.574219 118.539062 82.070312 118.863281 81.582031 C 119.191406 81.089844 119.542969 80.617188 119.917969 80.160156 C 120.292969 79.707031 120.6875 79.269531 121.101562 78.851562 C 121.519531 78.4375 121.957031 78.039062 122.414062 77.667969 C 122.867188 77.292969 123.339844 76.941406 123.832031 76.613281 C 124.320312 76.285156 124.828125 75.984375 125.347656 75.707031 C 125.867188 75.429688 126.398438 75.175781 126.941406 74.949219 C 127.488281 74.726562 128.042969 74.527344 128.605469 74.355469 C 129.171875 74.183594 129.742188 74.042969 130.320312 73.925781 C 130.898438 73.8125 131.480469 73.726562 132.066406 73.667969 C 132.652344 73.609375 133.242188 73.582031 133.832031 73.582031 C 134.421875 73.582031 135.007812 73.609375 135.597656 73.667969 C 136.183594 73.726562 136.765625 73.8125 137.34375 73.925781 C 137.921875 74.042969 138.492188 74.183594 139.054688 74.355469 C 139.621094 74.527344 140.175781 74.726562 140.71875 74.949219 C 141.265625 75.175781 141.796875 75.429688 142.316406 75.707031 C 142.835938 75.984375 143.339844 76.285156 143.832031 76.613281 C 144.320312 76.941406 144.792969 77.292969 145.25 77.667969 C 145.707031 78.039062 146.140625 78.4375 146.558594 78.851562 C 146.976562 79.269531 147.371094 79.707031 147.746094 80.160156 C 148.121094 80.617188 148.46875 81.089844 148.796875 81.582031 C 149.125 82.070312 149.429688 82.574219 149.707031 83.097656 C 149.984375 83.617188 150.234375 84.148438 150.460938 84.691406 C 150.6875 85.238281 150.886719 85.792969 151.054688 86.355469 C 151.226562 86.921875 151.371094 87.492188 151.484375 88.070312 C 151.601562 88.648438 151.6875 89.230469 151.746094 89.816406 C 151.800781 90.402344 151.832031 90.992188 151.832031 91.582031 Z M 151.832031 91.582031 " fill-opacity="1" fill-rule="nonzero"/><path fill="#000000" d="M 205.832031 109.582031 C 205.832031 112.945312 205.132812 116.144531 203.878906 119.050781 C 206.804688 115.34375 210.496094 112.324219 214.679688 110.167969 C 209.285156 105.765625 205.835938 99.070312 205.835938 91.582031 C 205.835938 84.046875 209.328125 77.324219 214.773438 72.921875 C 211.90625 71.390625 208.667969 70.5 205.152344 70.5 C 195.433594 70.5 187.410156 76.933594 184.960938 85.808594 C 196.714844 87.351562 205.832031 97.410156 205.832031 109.582031 Z M 205.832031 109.582031 " fill-opacity="1" fill-rule="nonzero"/><path fill="#000000" d="M 157.832031 91.582031 C 157.832031 99.097656 154.351562 105.8125 148.925781 110.21875 C 153.292969 112.484375 157.109375 115.703125 160.078125 119.65625 C 158.652344 116.589844 157.832031 113.179688 157.832031 109.582031 C 157.832031 97.660156 166.574219 87.773438 177.972656 85.921875 C 175.5625 76.984375 167.507812 70.5 157.75 70.5 C 154.414062 70.5 151.320312 71.292969 148.5625 72.679688 C 154.191406 77.074219 157.832031 83.902344 157.832031 91.582031 Z M 157.832031 91.582031 " fill-opacity="1" fill-rule="nonzero"/></svg>