<svg xmlns="http://www.w3.org/2000/svg" xmlns:xlink="http://www.w3.org/1999/xlink" width="500" zoomAndPan="magnify" viewBox="0 0 375 149.999998" height="200" preserveAspectRatio="xMidYMid meet" version="1.0"><defs><g/></defs><g fill="#ffffff" fill-opacity="1"><g transform="translate(3.440946, 102.758093)"><g><path d="M 11.609375 -43.921875 C 11.796875 -43.484375 11.867188 -42.953125 11.828125 -42.328125 C 11.785156 -41.710938 11.640625 -41.179688 11.390625 -40.734375 C 11.148438 -40.296875 10.863281 -39.9375 10.53125 -39.65625 C 9.894531 -39.164062 9.242188 -38.921875 8.578125 -38.921875 C 7.910156 -38.921875 7.382812 -38.992188 7 -39.140625 C 6.613281 -39.296875 6.269531 -39.507812 5.96875 -39.78125 C 5.25 -40.445312 4.890625 -41.316406 4.890625 -42.390625 C 4.890625 -43.472656 5.164062 -44.25 5.71875 -44.71875 C 6.632812 -45.519531 7.546875 -45.921875 8.453125 -45.921875 C 9.941406 -45.921875 10.992188 -45.253906 11.609375 -43.921875 Z M 10.28125 -28.34375 C 10.144531 -25.46875 10.003906 -22.632812 9.859375 -19.84375 C 9.722656 -17.0625 9.65625 -14.550781 9.65625 -12.3125 C 9.65625 -10.070312 9.722656 -7.753906 9.859375 -5.359375 C 10.003906 -2.972656 10.015625 -1.609375 9.890625 -1.265625 C 9.765625 -0.921875 9.585938 -0.640625 9.359375 -0.421875 C 8.890625 0.0546875 8.378906 0.296875 7.828125 0.296875 C 7.273438 0.296875 6.753906 0.0859375 6.265625 -0.328125 C 5.785156 -0.742188 5.601562 -1.585938 5.71875 -2.859375 C 6.019531 -6.367188 6.171875 -9.914062 6.171875 -13.5 C 6.171875 -17.09375 6.125 -20 6.03125 -22.21875 C 5.9375 -24.445312 5.867188 -26.128906 5.828125 -27.265625 C 5.785156 -28.398438 5.832031 -29.132812 5.96875 -29.46875 C 6.101562 -29.800781 6.296875 -30.0625 6.546875 -30.25 C 7.015625 -30.695312 7.539062 -30.921875 8.125 -30.921875 C 8.707031 -30.921875 9.21875 -30.710938 9.65625 -30.296875 C 10.09375 -29.878906 10.300781 -29.226562 10.28125 -28.34375 Z M 10.28125 -28.34375 "/></g></g></g><g fill="#ffffff" fill-opacity="1"><g transform="translate(19.270672, 102.758093)"><g><path d="M 47.65625 -51.96875 L 47.703125 -37.015625 C 47.703125 -26.566406 47.921875 -15.082031 48.359375 -2.5625 C 48.390625 -1.6875 48.160156 -1.039062 47.671875 -0.625 C 47.191406 -0.207031 46.644531 0 46.03125 0 C 45.425781 0 44.875 -0.234375 44.375 -0.703125 C 43.882812 -1.171875 43.640625 -1.847656 43.640625 -2.734375 C 44.054688 -15.171875 44.265625 -25.53125 44.265625 -33.8125 L 44.265625 -55.28125 C 44.265625 -56.882812 44.25 -58.390625 44.21875 -59.796875 C 43.613281 -57.453125 42.828125 -54.398438 41.859375 -50.640625 C 39.648438 -42.378906 38.101562 -36.664062 37.21875 -33.5 C 36.332031 -30.34375 35.445312 -27.226562 34.5625 -24.15625 C 32.738281 -17.832031 31.039062 -12.28125 29.46875 -7.5 C 29.300781 -6.945312 28.972656 -6.53125 28.484375 -6.25 C 28.003906 -5.976562 27.546875 -5.84375 27.109375 -5.84375 C 26.242188 -5.84375 25.660156 -6.394531 25.359375 -7.5 C 25.222656 -7.945312 24.898438 -9.019531 24.390625 -10.71875 C 23.878906 -12.414062 23.242188 -14.515625 22.484375 -17.015625 C 21.722656 -19.515625 20.878906 -22.316406 19.953125 -25.421875 C 19.023438 -28.535156 18.070312 -31.722656 17.09375 -34.984375 C 16.113281 -38.242188 15.15625 -41.472656 14.21875 -44.671875 C 13.28125 -47.878906 12.421875 -50.835938 11.640625 -53.546875 C 11.003906 -55.785156 10.46875 -57.71875 10.03125 -59.34375 L 10.109375 -49.0625 C 10.109375 -36.550781 10.238281 -26.207031 10.5 -18.03125 C 10.769531 -9.851562 10.914062 -5.097656 10.9375 -3.765625 C 10.96875 -2.441406 10.90625 -1.628906 10.75 -1.328125 C 10.601562 -1.023438 10.40625 -0.773438 10.15625 -0.578125 C 9.070312 0.328125 8.007812 0.300781 6.96875 -0.65625 C 6.46875 -1.132812 6.25 -1.96875 6.3125 -3.15625 C 6.382812 -4.34375 6.445312 -5.828125 6.5 -7.609375 C 6.5625 -9.390625 6.601562 -11.273438 6.625 -13.265625 C 6.738281 -17.960938 6.796875 -22.3125 6.796875 -26.3125 L 6.296875 -64.03125 C 6.296875 -65.269531 6.585938 -66.144531 7.171875 -66.65625 C 7.753906 -67.164062 8.429688 -67.421875 9.203125 -67.421875 C 10.660156 -67.421875 11.664062 -66.539062 12.21875 -64.78125 C 12.28125 -64.613281 12.425781 -64.117188 12.65625 -63.296875 C 12.894531 -62.484375 13.207031 -61.421875 13.59375 -60.109375 C 13.976562 -58.796875 14.425781 -57.273438 14.9375 -55.546875 C 15.445312 -53.828125 15.992188 -51.972656 16.578125 -49.984375 C 17.160156 -47.992188 17.769531 -45.90625 18.40625 -43.71875 C 20.613281 -36.125 23.664062 -25.722656 27.5625 -12.515625 C 29.601562 -18.347656 33.375 -31.566406 38.875 -52.171875 C 39.945312 -56.265625 41.023438 -60.4375 42.109375 -64.6875 C 42.609375 -66.59375 43.753906 -67.546875 45.546875 -67.546875 C 46.265625 -67.546875 46.835938 -67.191406 47.265625 -66.484375 C 47.691406 -65.785156 47.878906 -64.773438 47.828125 -63.453125 C 47.710938 -61.597656 47.65625 -57.769531 47.65625 -51.96875 Z M 47.65625 -51.96875 "/></g></g></g><g fill="#ffffff" fill-opacity="1"><g transform="translate(73.92882, 102.758093)"><g><path d="M 20.3125 -8.5 C 20.28125 -10.019531 20.28125 -11.882812 20.3125 -14.09375 C 19.125 -14.507812 17.617188 -14.71875 15.796875 -14.71875 C 13.328125 -14.71875 11.304688 -14.125 9.734375 -12.9375 C 8.960938 -12.320312 8.34375 -11.578125 7.875 -10.703125 C 7.40625 -9.835938 7.171875 -8.722656 7.171875 -7.359375 C 7.171875 -5.992188 7.640625 -4.851562 8.578125 -3.9375 C 9.515625 -3.019531 10.894531 -2.5625 12.71875 -2.5625 C 14.539062 -2.5625 16.570312 -3.804688 18.8125 -6.296875 C 19.445312 -6.984375 19.945312 -7.71875 20.3125 -8.5 Z M 22.953125 0.875 C 21.296875 0.875 20.46875 -0.382812 20.46875 -2.90625 C 20.46875 -3.070312 20.457031 -3.539062 20.4375 -4.3125 C 20.1875 -4.007812 19.910156 -3.675781 19.609375 -3.3125 C 17.117188 -0.5 14.410156 0.90625 11.484375 0.90625 C 9.128906 0.90625 7.179688 0.160156 5.640625 -1.328125 C 4.035156 -2.867188 3.234375 -4.84375 3.234375 -7.25 C 3.234375 -10.59375 4.53125 -13.285156 7.125 -15.328125 C 8.289062 -16.242188 9.597656 -16.9375 11.046875 -17.40625 C 12.492188 -17.875 14.117188 -18.109375 15.921875 -18.109375 C 17.410156 -18.109375 18.875 -17.859375 20.3125 -17.359375 L 20.3125 -21.75 C 20.3125 -24.1875 19.804688 -26.007812 18.796875 -27.21875 C 17.785156 -28.4375 16.738281 -29.046875 15.65625 -29.046875 C 14.582031 -29.046875 13.707031 -28.90625 13.03125 -28.625 C 12.351562 -28.351562 11.753906 -27.957031 11.234375 -27.4375 C 10.066406 -26.300781 9.398438 -24.890625 9.234375 -23.203125 C 9.316406 -22.316406 9.140625 -21.703125 8.703125 -21.359375 C 8.265625 -21.015625 7.78125 -20.84375 7.25 -20.84375 C 5.757812 -20.84375 5.039062 -21.835938 5.09375 -23.828125 C 5.15625 -25.898438 6.207031 -27.804688 8.25 -29.546875 C 10.34375 -31.347656 12.691406 -32.25 15.296875 -32.25 C 19.160156 -32.25 21.769531 -30.328125 23.125 -26.484375 C 23.59375 -25.097656 23.828125 -23.578125 23.828125 -21.921875 L 23.828125 -17.65625 L 23.78125 -10.6875 L 23.78125 -7 C 23.78125 -5.34375 23.976562 -4.003906 24.375 -2.984375 C 24.78125 -1.960938 24.984375 -1.238281 24.984375 -0.8125 C 24.984375 -0.382812 24.773438 0 24.359375 0.34375 C 23.953125 0.695312 23.484375 0.875 22.953125 0.875 Z M 22.953125 0.875 "/></g></g></g><g fill="#ffffff" fill-opacity="1"><g transform="translate(102.521781, 102.758093)"><g><path d="M 26.28125 -20.09375 L 26.1875 -11.140625 C 26.1875 -8.191406 26.285156 -5.429688 26.484375 -2.859375 C 26.535156 -1.921875 26.304688 -1.222656 25.796875 -0.765625 C 25.285156 -0.304688 24.742188 -0.078125 24.171875 -0.078125 C 23.609375 -0.078125 23.097656 -0.289062 22.640625 -0.71875 C 22.191406 -1.15625 22.015625 -1.804688 22.109375 -2.671875 C 22.203125 -3.546875 22.285156 -4.546875 22.359375 -5.671875 C 22.429688 -6.804688 22.492188 -7.984375 22.546875 -9.203125 C 22.648438 -11.628906 22.703125 -13.632812 22.703125 -15.21875 C 22.703125 -16.8125 22.675781 -17.96875 22.625 -18.6875 C 22.570312 -19.40625 22.515625 -20.472656 22.453125 -21.890625 C 22.398438 -23.316406 22.03125 -24.660156 21.34375 -25.921875 C 20.65625 -27.179688 19.6875 -27.8125 18.4375 -27.8125 C 17.195312 -27.8125 16.117188 -27.546875 15.203125 -27.015625 C 14.296875 -26.492188 13.457031 -25.804688 12.6875 -24.953125 C 11.101562 -23.097656 10.050781 -20.941406 9.53125 -18.484375 C 9.5 -17.710938 9.484375 -16.953125 9.484375 -16.203125 L 9.484375 -14.046875 C 9.484375 -9.046875 9.539062 -5.738281 9.65625 -4.125 C 9.769531 -2.507812 9.671875 -1.429688 9.359375 -0.890625 C 9.054688 -0.347656 8.523438 -0.078125 7.765625 -0.078125 C 7.003906 -0.078125 6.410156 -0.316406 5.984375 -0.796875 C 5.554688 -1.285156 5.382812 -2.179688 5.46875 -3.484375 C 5.75 -7.046875 5.890625 -10.707031 5.890625 -14.46875 C 5.890625 -20.90625 5.789062 -25.628906 5.59375 -28.640625 C 5.476562 -30.484375 6.253906 -31.40625 7.921875 -31.40625 C 8.773438 -31.40625 9.316406 -31.144531 9.546875 -30.625 C 9.785156 -30.101562 9.867188 -29.550781 9.796875 -28.96875 C 9.734375 -28.382812 9.691406 -27.882812 9.671875 -27.46875 C 9.660156 -27.0625 9.65625 -26.632812 9.65625 -26.1875 C 9.65625 -25.75 9.65625 -25.347656 9.65625 -24.984375 C 11.28125 -28.078125 13.445312 -30.109375 16.15625 -31.078125 C 17.019531 -31.378906 17.890625 -31.53125 18.765625 -31.53125 C 19.648438 -31.53125 20.5625 -31.332031 21.5 -30.9375 C 22.445312 -30.539062 23.265625 -29.882812 23.953125 -28.96875 C 25.503906 -26.976562 26.28125 -24.019531 26.28125 -20.09375 Z M 26.28125 -20.09375 "/></g></g></g><g fill="#ffffff" fill-opacity="1"><g transform="translate(133.766844, 102.758093)"><g><path d="M 11.109375 -1.609375 C 11.492188 -1.585938 12.210938 -1.578125 13.265625 -1.578125 L 15.578125 -1.578125 C 20.492188 -1.578125 23.894531 0.46875 25.78125 4.5625 C 26.414062 5.882812 26.734375 7.414062 26.734375 9.15625 C 26.734375 10.894531 26.476562 12.441406 25.96875 13.796875 C 25.457031 15.148438 24.703125 16.328125 23.703125 17.328125 C 21.609375 19.335938 18.570312 20.34375 14.59375 20.34375 C 11.414062 20.34375 8.84375 19.53125 6.875 17.90625 C 4.882812 16.21875 3.890625 13.867188 3.890625 10.859375 C 3.890625 8.179688 4.609375 5.765625 6.046875 3.609375 C 6.546875 2.828125 7.070312 2.191406 7.625 1.703125 C 6.488281 1.421875 5.578125 0.828125 4.890625 -0.078125 C 4.003906 -1.242188 3.5625 -2.445312 3.5625 -3.6875 C 3.5625 -4.925781 3.6875 -5.953125 3.9375 -6.765625 C 4.1875 -7.585938 4.53125 -8.34375 4.96875 -9.03125 C 5.664062 -10.113281 6.441406 -11.015625 7.296875 -11.734375 C 5.972656 -12.671875 4.921875 -13.953125 4.140625 -15.578125 C 3.535156 -16.878906 3.234375 -18.445312 3.234375 -20.28125 C 3.234375 -22.125 3.539062 -23.796875 4.15625 -25.296875 C 4.78125 -26.804688 5.617188 -28.0625 6.671875 -29.0625 C 7.722656 -30.070312 8.925781 -30.835938 10.28125 -31.359375 C 11.632812 -31.890625 13.097656 -32.171875 14.671875 -32.203125 C 15.773438 -32.234375 16.851562 -32.125 17.90625 -31.875 C 18.039062 -33.71875 18.785156 -35.691406 20.140625 -37.796875 C 22.078125 -40.753906 24.285156 -42.234375 26.765625 -42.234375 C 28.066406 -42.234375 28.71875 -41.554688 28.71875 -40.203125 C 28.71875 -39.367188 28.109375 -38.664062 26.890625 -38.09375 C 24.984375 -37.675781 23.425781 -36.664062 22.21875 -35.0625 C 21.25 -33.820312 20.707031 -32.398438 20.59375 -30.796875 C 21.34375 -30.378906 22.019531 -29.867188 22.625 -29.265625 C 24.664062 -27.210938 25.6875 -24.320312 25.6875 -20.59375 C 25.6875 -17.613281 24.722656 -15.128906 22.796875 -13.140625 C 20.640625 -10.929688 17.804688 -9.828125 14.296875 -9.828125 C 12.503906 -9.828125 10.914062 -10.070312 9.53125 -10.5625 C 8.976562 -9.84375 8.492188 -8.890625 8.078125 -7.703125 C 7.523438 -6.128906 7.25 -5 7.25 -4.3125 C 7.25 -2.507812 8.535156 -1.609375 11.109375 -1.609375 Z M 6.96875 -20.296875 C 6.96875 -18.035156 7.625 -16.25 8.9375 -14.9375 C 10.25 -13.625 11.804688 -12.96875 13.609375 -12.96875 C 15.421875 -12.96875 16.816406 -13.1875 17.796875 -13.625 C 18.773438 -14.070312 19.582031 -14.671875 20.21875 -15.421875 C 21.488281 -16.859375 22.125 -18.816406 22.125 -21.296875 C 22.125 -24.835938 20.578125 -27.160156 17.484375 -28.265625 C 16.578125 -28.597656 15.519531 -28.765625 14.3125 -28.765625 C 13.113281 -28.765625 12.046875 -28.507812 11.109375 -28 C 10.171875 -27.488281 9.394531 -26.832031 8.78125 -26.03125 C 7.570312 -24.476562 6.96875 -22.566406 6.96875 -20.296875 Z M 10.734375 1.984375 C 10.316406 2.234375 9.929688 2.648438 9.578125 3.234375 C 8.273438 5.222656 7.625 7.445312 7.625 9.90625 C 7.625 14.625 10.316406 16.984375 15.703125 16.984375 C 20.597656 16.984375 23.046875 14.472656 23.046875 9.453125 C 23.046875 7.242188 22.460938 5.421875 21.296875 3.984375 C 20.253906 2.648438 19.046875 1.976562 17.671875 1.96875 C 16.304688 1.957031 14.835938 1.960938 13.265625 1.984375 C 12.410156 2.015625 11.566406 2.015625 10.734375 1.984375 Z M 10.734375 1.984375 "/></g></g></g><g fill="#ffffff" fill-opacity="1"><g transform="translate(161.945414, 102.758093)"><g><path d="M 21.515625 -17.90625 C 21.566406 -22.707031 20.554688 -25.992188 18.484375 -27.765625 C 17.648438 -28.515625 16.640625 -28.890625 15.453125 -28.890625 C 14.265625 -28.890625 13.285156 -28.664062 12.515625 -28.21875 C 11.742188 -27.78125 11.0625 -27.1875 10.46875 -26.4375 C 9.875 -25.695312 9.375 -24.847656 8.96875 -23.890625 C 8.570312 -22.941406 8.25 -21.96875 8 -20.96875 C 7.75 -19.914062 7.566406 -18.878906 7.453125 -17.859375 L 13.140625 -17.609375 C 16.835938 -17.609375 19.628906 -17.707031 21.515625 -17.90625 Z M 7.296875 -14.296875 C 7.347656 -10.484375 8.035156 -7.566406 9.359375 -5.546875 C 10.796875 -3.398438 12.828125 -2.328125 15.453125 -2.328125 C 17.859375 -2.328125 19.613281 -3.515625 20.71875 -5.890625 C 21.40625 -7.429688 22.265625 -8.203125 23.296875 -8.203125 C 23.765625 -8.203125 24.15625 -8.050781 24.46875 -7.75 C 24.789062 -7.445312 24.9375 -6.914062 24.90625 -6.15625 C 24.875 -5.394531 24.601562 -4.570312 24.09375 -3.6875 C 23.582031 -2.800781 22.875 -2.015625 21.96875 -1.328125 C 19.976562 0.222656 17.585938 1 14.796875 1 C 11.785156 1 9.1875 -0.285156 7 -2.859375 C 4.707031 -5.566406 3.5625 -8.785156 3.5625 -12.515625 C 3.5625 -16.242188 3.882812 -19.273438 4.53125 -21.609375 C 5.1875 -23.941406 6.050781 -25.882812 7.125 -27.4375 C 9.226562 -30.5625 11.851562 -32.125 15 -32.125 C 19.03125 -32.125 21.863281 -30.535156 23.5 -27.359375 C 24.632812 -25.140625 25.242188 -21.890625 25.328125 -17.609375 C 25.347656 -16.398438 25.148438 -15.585938 24.734375 -15.171875 C 24.328125 -14.753906 23.488281 -14.546875 22.21875 -14.546875 Z M 7.296875 -14.296875 "/></g></g></g><g fill="#ffffff" fill-opacity="1"><g transform="translate(190.579823, 102.758093)"><g><path d="M 22.5 -29.875 C 22.5 -28.382812 21.753906 -27.53125 20.265625 -27.3125 C 18.441406 -26.945312 16.382812 -25.382812 14.09375 -22.625 C 11.632812 -19.644531 10.253906 -16.703125 9.953125 -13.796875 C 9.835938 -12.523438 9.78125 -11.363281 9.78125 -10.3125 C 9.78125 -7.800781 9.890625 -5.164062 10.109375 -2.40625 C 10.160156 -1.488281 9.929688 -0.796875 9.421875 -0.328125 C 8.910156 0.140625 8.359375 0.375 7.765625 0.375 C 7.171875 0.375 6.648438 0.160156 6.203125 -0.265625 C 5.765625 -0.691406 5.585938 -1.335938 5.671875 -2.203125 C 5.753906 -3.078125 5.820312 -4.085938 5.875 -5.234375 C 5.9375 -6.390625 5.992188 -7.601562 6.046875 -8.875 C 6.109375 -11.019531 6.140625 -13.421875 6.140625 -16.078125 C 6.140625 -20.554688 6.082031 -23.878906 5.96875 -26.046875 C 5.851562 -28.210938 5.863281 -29.460938 6 -29.796875 C 6.144531 -30.128906 6.328125 -30.390625 6.546875 -30.578125 C 7.015625 -31.023438 7.53125 -31.25 8.09375 -31.25 C 8.664062 -31.25 9.175781 -31.039062 9.625 -30.625 C 10.082031 -30.207031 10.289062 -29.675781 10.25 -29.03125 C 10.207031 -28.382812 10.148438 -27.75 10.078125 -27.125 C 10.015625 -26.5 9.941406 -25.734375 9.859375 -24.828125 C 9.691406 -23.359375 9.539062 -21.796875 9.40625 -20.140625 C 10.539062 -22.984375 12.15625 -25.609375 14.25 -28.015625 C 16.601562 -30.640625 18.648438 -31.953125 20.390625 -31.953125 C 21.140625 -31.953125 21.675781 -31.742188 22 -31.328125 C 22.332031 -30.910156 22.5 -30.425781 22.5 -29.875 Z M 22.5 -29.875 "/></g></g></g><g fill="#ffffff" fill-opacity="1"><g transform="translate(212.583979, 102.758093)"><g><path d="M 47.65625 -51.96875 L 47.703125 -37.015625 C 47.703125 -26.566406 47.921875 -15.082031 48.359375 -2.5625 C 48.390625 -1.6875 48.160156 -1.039062 47.671875 -0.625 C 47.191406 -0.207031 46.644531 0 46.03125 0 C 45.425781 0 44.875 -0.234375 44.375 -0.703125 C 43.882812 -1.171875 43.640625 -1.847656 43.640625 -2.734375 C 44.054688 -15.171875 44.265625 -25.53125 44.265625 -33.8125 L 44.265625 -55.28125 C 44.265625 -56.882812 44.25 -58.390625 44.21875 -59.796875 C 43.613281 -57.453125 42.828125 -54.398438 41.859375 -50.640625 C 39.648438 -42.378906 38.101562 -36.664062 37.21875 -33.5 C 36.332031 -30.34375 35.445312 -27.226562 34.5625 -24.15625 C 32.738281 -17.832031 31.039062 -12.28125 29.46875 -7.5 C 29.300781 -6.945312 28.972656 -6.53125 28.484375 -6.25 C 28.003906 -5.976562 27.546875 -5.84375 27.109375 -5.84375 C 26.242188 -5.84375 25.660156 -6.394531 25.359375 -7.5 C 25.222656 -7.945312 24.898438 -9.019531 24.390625 -10.71875 C 23.878906 -12.414062 23.242188 -14.515625 22.484375 -17.015625 C 21.722656 -19.515625 20.878906 -22.316406 19.953125 -25.421875 C 19.023438 -28.535156 18.070312 -31.722656 17.09375 -34.984375 C 16.113281 -38.242188 15.15625 -41.472656 14.21875 -44.671875 C 13.28125 -47.878906 12.421875 -50.835938 11.640625 -53.546875 C 11.003906 -55.785156 10.46875 -57.71875 10.03125 -59.34375 L 10.109375 -49.0625 C 10.109375 -36.550781 10.238281 -26.207031 10.5 -18.03125 C 10.769531 -9.851562 10.914062 -5.097656 10.9375 -3.765625 C 10.96875 -2.441406 10.90625 -1.628906 10.75 -1.328125 C 10.601562 -1.023438 10.40625 -0.773438 10.15625 -0.578125 C 9.070312 0.328125 8.007812 0.300781 6.96875 -0.65625 C 6.46875 -1.132812 6.25 -1.96875 6.3125 -3.15625 C 6.382812 -4.34375 6.445312 -5.828125 6.5 -7.609375 C 6.5625 -9.390625 6.601562 -11.273438 6.625 -13.265625 C 6.738281 -17.960938 6.796875 -22.3125 6.796875 -26.3125 L 6.296875 -64.03125 C 6.296875 -65.269531 6.585938 -66.144531 7.171875 -66.65625 C 7.753906 -67.164062 8.429688 -67.421875 9.203125 -67.421875 C 10.660156 -67.421875 11.664062 -66.539062 12.21875 -64.78125 C 12.28125 -64.613281 12.425781 -64.117188 12.65625 -63.296875 C 12.894531 -62.484375 13.207031 -61.421875 13.59375 -60.109375 C 13.976562 -58.796875 14.425781 -57.273438 14.9375 -55.546875 C 15.445312 -53.828125 15.992188 -51.972656 16.578125 -49.984375 C 17.160156 -47.992188 17.769531 -45.90625 18.40625 -43.71875 C 20.613281 -36.125 23.664062 -25.722656 27.5625 -12.515625 C 29.601562 -18.347656 33.375 -31.566406 38.875 -52.171875 C 39.945312 -56.265625 41.023438 -60.4375 42.109375 -64.6875 C 42.609375 -66.59375 43.753906 -67.546875 45.546875 -67.546875 C 46.265625 -67.546875 46.835938 -67.191406 47.265625 -66.484375 C 47.691406 -65.785156 47.878906 -64.773438 47.828125 -63.453125 C 47.710938 -61.597656 47.65625 -57.769531 47.65625 -51.96875 Z M 47.65625 -51.96875 "/></g></g></g><g fill="#ffffff" fill-opacity="1"><g transform="translate(267.242112, 102.758093)"><g><path d="M 11.609375 -43.921875 C 11.796875 -43.484375 11.867188 -42.953125 11.828125 -42.328125 C 11.785156 -41.710938 11.640625 -41.179688 11.390625 -40.734375 C 11.148438 -40.296875 10.863281 -39.9375 10.53125 -39.65625 C 9.894531 -39.164062 9.242188 -38.921875 8.578125 -38.921875 C 7.910156 -38.921875 7.382812 -38.992188 7 -39.140625 C 6.613281 -39.296875 6.269531 -39.507812 5.96875 -39.78125 C 5.25 -40.445312 4.890625 -41.316406 4.890625 -42.390625 C 4.890625 -43.472656 5.164062 -44.25 5.71875 -44.71875 C 6.632812 -45.519531 7.546875 -45.921875 8.453125 -45.921875 C 9.941406 -45.921875 10.992188 -45.253906 11.609375 -43.921875 Z M 10.28125 -28.34375 C 10.144531 -25.46875 10.003906 -22.632812 9.859375 -19.84375 C 9.722656 -17.0625 9.65625 -14.550781 9.65625 -12.3125 C 9.65625 -10.070312 9.722656 -7.753906 9.859375 -5.359375 C 10.003906 -2.972656 10.015625 -1.609375 9.890625 -1.265625 C 9.765625 -0.921875 9.585938 -0.640625 9.359375 -0.421875 C 8.890625 0.0546875 8.378906 0.296875 7.828125 0.296875 C 7.273438 0.296875 6.753906 0.0859375 6.265625 -0.328125 C 5.785156 -0.742188 5.601562 -1.585938 5.71875 -2.859375 C 6.019531 -6.367188 6.171875 -9.914062 6.171875 -13.5 C 6.171875 -17.09375 6.125 -20 6.03125 -22.21875 C 5.9375 -24.445312 5.867188 -26.128906 5.828125 -27.265625 C 5.785156 -28.398438 5.832031 -29.132812 5.96875 -29.46875 C 6.101562 -29.800781 6.296875 -30.0625 6.546875 -30.25 C 7.015625 -30.695312 7.539062 -30.921875 8.125 -30.921875 C 8.707031 -30.921875 9.21875 -30.710938 9.65625 -30.296875 C 10.09375 -29.878906 10.300781 -29.226562 10.28125 -28.34375 Z M 10.28125 -28.34375 "/></g></g></g><g fill="#ffffff" fill-opacity="1"><g transform="translate(283.071854, 102.758093)"><g><path d="M 21.515625 -17.90625 C 21.566406 -22.707031 20.554688 -25.992188 18.484375 -27.765625 C 17.648438 -28.515625 16.640625 -28.890625 15.453125 -28.890625 C 14.265625 -28.890625 13.285156 -28.664062 12.515625 -28.21875 C 11.742188 -27.78125 11.0625 -27.1875 10.46875 -26.4375 C 9.875 -25.695312 9.375 -24.847656 8.96875 -23.890625 C 8.570312 -22.941406 8.25 -21.96875 8 -20.96875 C 7.75 -19.914062 7.566406 -18.878906 7.453125 -17.859375 L 13.140625 -17.609375 C 16.835938 -17.609375 19.628906 -17.707031 21.515625 -17.90625 Z M 7.296875 -14.296875 C 7.347656 -10.484375 8.035156 -7.566406 9.359375 -5.546875 C 10.796875 -3.398438 12.828125 -2.328125 15.453125 -2.328125 C 17.859375 -2.328125 19.613281 -3.515625 20.71875 -5.890625 C 21.40625 -7.429688 22.265625 -8.203125 23.296875 -8.203125 C 23.765625 -8.203125 24.15625 -8.050781 24.46875 -7.75 C 24.789062 -7.445312 24.9375 -6.914062 24.90625 -6.15625 C 24.875 -5.394531 24.601562 -4.570312 24.09375 -3.6875 C 23.582031 -2.800781 22.875 -2.015625 21.96875 -1.328125 C 19.976562 0.222656 17.585938 1 14.796875 1 C 11.785156 1 9.1875 -0.285156 7 -2.859375 C 4.707031 -5.566406 3.5625 -8.785156 3.5625 -12.515625 C 3.5625 -16.242188 3.882812 -19.273438 4.53125 -21.609375 C 5.1875 -23.941406 6.050781 -25.882812 7.125 -27.4375 C 9.226562 -30.5625 11.851562 -32.125 15 -32.125 C 19.03125 -32.125 21.863281 -30.535156 23.5 -27.359375 C 24.632812 -25.140625 25.242188 -21.890625 25.328125 -17.609375 C 25.347656 -16.398438 25.148438 -15.585938 24.734375 -15.171875 C 24.328125 -14.753906 23.488281 -14.546875 22.21875 -14.546875 Z M 7.296875 -14.296875 "/></g></g></g><g fill="#ffffff" fill-opacity="1"><g transform="translate(311.706262, 102.758093)"><g><path d="M 8.828125 -10.109375 C 8.828125 -5.191406 10.664062 -2.734375 14.34375 -2.734375 C 16.4375 -2.734375 18.234375 -3.785156 19.734375 -5.890625 C 21.054688 -7.765625 21.84375 -10 22.09375 -12.59375 C 22.175781 -15.03125 22.21875 -17.269531 22.21875 -19.3125 C 22.21875 -22.238281 22.1875 -25.195312 22.125 -28.1875 C 22.070312 -29.09375 22.304688 -29.78125 22.828125 -30.25 C 23.359375 -30.71875 23.90625 -30.953125 24.46875 -30.953125 C 25.039062 -30.953125 25.546875 -30.738281 25.984375 -30.3125 C 26.421875 -29.882812 26.585938 -29.257812 26.484375 -28.4375 C 25.984375 -23.101562 25.734375 -17.953125 25.734375 -12.984375 C 25.734375 -8.023438 25.800781 -5.253906 25.9375 -4.671875 C 26.082031 -4.097656 26.25 -3.617188 26.4375 -3.234375 C 26.882812 -2.234375 27.109375 -1.503906 27.109375 -1.046875 C 27.109375 -0.597656 26.929688 -0.175781 26.578125 0.21875 C 26.234375 0.625 25.757812 0.828125 25.15625 0.828125 C 23.082031 0.828125 22.070312 -1.0625 22.125 -4.84375 C 21.1875 -3.132812 20.316406 -1.945312 19.515625 -1.28125 C 16.785156 0.976562 13.789062 1.515625 10.53125 0.328125 C 6.882812 -1.046875 5.0625 -4.648438 5.0625 -10.484375 C 5.0625 -13.523438 5.039062 -16.519531 5 -19.46875 C 4.957031 -22.425781 4.945312 -25.332031 4.96875 -28.1875 C 5 -29.09375 5.253906 -29.773438 5.734375 -30.234375 C 6.222656 -30.691406 6.75 -30.921875 7.3125 -30.921875 C 7.882812 -30.921875 8.40625 -30.710938 8.875 -30.296875 C 9.34375 -29.878906 9.515625 -29.171875 9.390625 -28.171875 C 9.265625 -27.179688 9.164062 -25.882812 9.09375 -24.28125 C 9.03125 -22.675781 8.984375 -21.035156 8.953125 -19.359375 C 8.867188 -16.535156 8.828125 -13.453125 8.828125 -10.109375 Z M 8.828125 -10.109375 "/></g></g></g><g fill="#ffffff" fill-opacity="1"><g transform="translate(343.034203, 102.758093)"><g><path d="M 17.109375 -14.875 C 18.078125 -13.101562 19.304688 -11.046875 20.796875 -8.703125 C 22.515625 -6.023438 23.625 -4.21875 24.125 -3.28125 C 24.425781 -2.945312 24.578125 -2.46875 24.578125 -1.84375 C 24.578125 -1.21875 24.351562 -0.710938 23.90625 -0.328125 C 23.46875 0.0546875 22.988281 0.25 22.46875 0.25 C 21.351562 0.25 20.5625 -0.257812 20.09375 -1.28125 C 18.550781 -5.15625 17.320312 -7.929688 16.40625 -9.609375 C 15.632812 -10.960938 15.070312 -11.988281 14.71875 -12.6875 C 14.269531 -11.90625 13.785156 -11.046875 13.265625 -10.109375 C 12.597656 -8.972656 11.929688 -7.84375 11.265625 -6.71875 C 8.804688 -2.4375 7.363281 -0.171875 6.9375 0.078125 C 6.507812 0.328125 6.085938 0.453125 5.671875 0.453125 C 5.265625 0.453125 4.832031 0.253906 4.375 -0.140625 C 3.914062 -0.546875 3.6875 -1.035156 3.6875 -1.609375 C 3.6875 -2.191406 3.941406 -2.828125 4.453125 -3.515625 C 4.960938 -4.210938 5.53125 -4.945312 6.15625 -5.71875 C 6.78125 -6.488281 7.4375 -7.359375 8.125 -8.328125 C 9.5625 -10.398438 10.941406 -12.789062 12.265625 -15.5 C 11.492188 -16.601562 10.625 -17.984375 9.65625 -19.640625 C 8.414062 -21.765625 7.289062 -23.609375 6.28125 -25.171875 C 5.269531 -26.734375 4.707031 -27.710938 4.59375 -28.109375 C 4.488281 -28.515625 4.4375 -28.96875 4.4375 -29.46875 C 4.4375 -29.96875 4.65625 -30.398438 5.09375 -30.765625 C 5.539062 -31.140625 6.050781 -31.328125 6.625 -31.328125 C 7.65625 -31.328125 8.445312 -30.65625 9 -29.3125 C 9.550781 -27.976562 10.109375 -26.738281 10.671875 -25.59375 C 11.234375 -24.445312 11.785156 -23.390625 12.328125 -22.421875 C 12.867188 -21.453125 13.398438 -20.539062 13.921875 -19.6875 C 14.285156 -19.101562 14.628906 -18.535156 14.953125 -17.984375 C 15.179688 -18.316406 15.429688 -18.734375 15.703125 -19.234375 C 16.203125 -20.035156 16.742188 -21 17.328125 -22.125 C 18.765625 -25 19.867188 -27.695312 20.640625 -30.21875 C 20.992188 -31.175781 21.546875 -31.65625 22.296875 -31.65625 C 23.046875 -31.65625 23.570312 -31.53125 23.875 -31.28125 C 24.175781 -31.039062 24.394531 -30.726562 24.53125 -30.34375 C 24.78125 -29.476562 24.640625 -28.546875 24.109375 -27.546875 C 23.585938 -26.554688 23.003906 -25.5 22.359375 -24.375 C 21.710938 -23.257812 21.054688 -22.125 20.390625 -20.96875 C 18.984375 -18.539062 17.890625 -16.507812 17.109375 -14.875 Z M 17.109375 -14.875 "/></g></g></g></svg>